<?xml version="1.0" encoding="UTF-8"?>
<!DOCTYPE svg PUBLIC "-//W3C//DTD SVG 1.0//EN" "http://www.w3.org/TR/2001/REC-SVG-20010904/DTD/svg10.dtd">
<!-- Creator: CorelDRAW -->
<svg xmlns="http://www.w3.org/2000/svg" xml:space="preserve" width="1300px" height="1300px" version="1.0" style="shape-rendering:geometricPrecision; text-rendering:geometricPrecision; image-rendering:optimizeQuality; fill-rule:evenodd; clip-rule:evenodd"
viewBox="0 0 1300 1056"
 xmlns:xlink="http://www.w3.org/1999/xlink">
 <defs>
  <style type="text/css">
   <![CDATA[
    .fil0 {fill:black}
   ]]>
  </style>
 </defs>
 <g id="_100:master">
  <metadata id="CorelCorpID_0Corel-Layer"/>
  <path class="fil0" d="M943 138l12 67c3,19 6,37 8,55 3,19 5,38 6,57 2,20 3,41 4,63 1,22 1,46 2,73 0,26 0,56 1,88 0,32 0,69 0,109l-67 0c0,-55 -1,-104 -1,-146 0,-43 -1,-81 -3,-114 -1,-34 -3,-64 -6,-92 -2,-28 -6,-55 -11,-81l-11 -67 66 -12z"/>
 </g>
</svg>
