<?xml version="1.0" encoding="UTF-8"?>
<!DOCTYPE svg PUBLIC "-//W3C//DTD SVG 1.0//EN" "http://www.w3.org/TR/2001/REC-SVG-20010904/DTD/svg10.dtd">
<!-- Creator: CorelDRAW -->
<svg xmlns="http://www.w3.org/2000/svg" xml:space="preserve" width="1300px" height="1300px" version="1.0" style="shape-rendering:geometricPrecision; text-rendering:geometricPrecision; image-rendering:optimizeQuality; fill-rule:evenodd; clip-rule:evenodd"
viewBox="0 0 1300 1056"
 xmlns:xlink="http://www.w3.org/1999/xlink">
 <defs>
  <style type="text/css">
   <![CDATA[
    .fil0 {fill:black}
   ]]>
  </style>
 </defs>
 <g id="_700:master">
  <metadata id="CorelCorpID_0Corel-Layer"/>
  <path class="fil0" d="M1090 650c-32,0 -59,-3 -82,-10 -23,-8 -42,-19 -57,-36 -14,-16 -25,-37 -32,-63 -7,-26 -11,-57 -11,-94l0 -308 68 0 0 307c0,28 2,49 8,66 5,16 13,28 22,37 10,8 22,14 36,16 14,3 30,4 48,4 7,0 13,4 16,12 2,8 4,18 4,29 0,11 -2,21 -4,29 -3,8 -9,11 -16,11z"/>
 </g>
</svg>
