<?xml version="1.0" encoding="UTF-8"?>
<!DOCTYPE svg PUBLIC "-//W3C//DTD SVG 1.0//EN" "http://www.w3.org/TR/2001/REC-SVG-20010904/DTD/svg10.dtd">
<!-- Creator: CorelDRAW -->
<svg xmlns="http://www.w3.org/2000/svg" xml:space="preserve" width="1300px" height="1300px" version="1.0" style="shape-rendering:geometricPrecision; text-rendering:geometricPrecision; image-rendering:optimizeQuality; fill-rule:evenodd; clip-rule:evenodd"
viewBox="0 0 1300 1056"
 xmlns:xlink="http://www.w3.org/1999/xlink">
 <defs>
  <style type="text/css">
   <![CDATA[
    .fil0 {fill:black}
   ]]>
  </style>
 </defs>
 <g id="_100:master">
  <metadata id="CorelCorpID_0Corel-Layer"/>
  <path class="fil0" d="M1041 569l0 81c-61,0 -109,-15 -145,-67 -46,49 -121,64 -190,73 -32,5 -70,7 -115,7 -97,0 -205,-24 -249,-115 -28,-61 -17,-124 6,-183 9,-22 22,-50 32,-67l44 25c-20,37 -40,91 -40,134 0,104 141,124 223,124 62,0 178,-8 228,-45 22,-17 35,-42 45,-71 13,-37 21,-77 29,-118l63 12c-6,34 -13,70 -20,102 -4,18 -9,34 -15,50 6,12 12,22 18,30 23,27 54,27 86,28z"/>
 </g>
</svg>
