<?xml version="1.0" encoding="UTF-8"?>
<!DOCTYPE svg PUBLIC "-//W3C//DTD SVG 1.0//EN" "http://www.w3.org/TR/2001/REC-SVG-20010904/DTD/svg10.dtd">
<!-- Creator: CorelDRAW -->
<svg xmlns="http://www.w3.org/2000/svg" xml:space="preserve" width="1300px" height="1300px" version="1.0" style="shape-rendering:geometricPrecision; text-rendering:geometricPrecision; image-rendering:optimizeQuality; fill-rule:evenodd; clip-rule:evenodd"
viewBox="0 0 1300 1056"
 xmlns:xlink="http://www.w3.org/1999/xlink">
 <defs>
  <style type="text/css">
   <![CDATA[
    .fil0 {fill:black}
   ]]>
  </style>
 </defs>
 <g id="_100:master">
  <metadata id="CorelCorpID_0Corel-Layer"/>
  <g>
   <path class="fil0" d="M733 660c-27,0 -48,-4 -62,-11 -15,-8 -26,-18 -33,-31 -8,-13 -12,-29 -14,-46 -1,-18 -2,-36 -2,-56l0 -51 50 0 0 51c0,17 2,30 5,39 3,9 8,16 13,20 6,5 12,7 20,8 7,1 15,1 23,1 10,0 23,-1 39,-3 15,-2 32,-5 49,-9 17,-3 33,-7 50,-12 16,-4 31,-9 44,-14 -3,-24 -9,-49 -17,-73 -8,-23 -19,-46 -33,-68 -15,-22 -32,-42 -54,-61 -21,-20 -46,-37 -75,-53l35 -64c33,18 63,39 87,61 25,23 46,47 63,73 17,27 30,54 39,83 9,29 14,60 15,91 0,8 -1,17 -4,26 -2,8 -6,17 -11,25 -5,8 -10,15 -17,21 -6,6 -14,10 -21,13 -12,4 -26,8 -42,13 -15,5 -31,9 -48,13 -17,4 -34,8 -51,10 -17,3 -33,4 -48,4l0 0z"/>
  </g>
 </g>
</svg>
