<?xml version="1.0" encoding="UTF-8"?>
<!DOCTYPE svg PUBLIC "-//W3C//DTD SVG 1.0//EN" "http://www.w3.org/TR/2001/REC-SVG-20010904/DTD/svg10.dtd">
<!-- Creator: CorelDRAW -->
<svg xmlns="http://www.w3.org/2000/svg" xml:space="preserve" width="1300px" height="1300px" version="1.0" style="shape-rendering:geometricPrecision; text-rendering:geometricPrecision; image-rendering:optimizeQuality; fill-rule:evenodd; clip-rule:evenodd"
viewBox="0 0 1300 1056"
 xmlns:xlink="http://www.w3.org/1999/xlink">
 <defs>
  <style type="text/css">
   <![CDATA[
    .fil0 {fill:#999933}
   ]]>
  </style>
 </defs>
 <g id="_100:master">
  <metadata id="CorelCorpID_0Corel-Layer"/>
  <path class="fil0" d="M572 527c59,-23 116,-53 167,-86 -10,-26 -23,-45 -40,-55 -38,-23 -93,-16 -140,-6 -29,7 -59,14 -90,24l-1 0 37 55c20,30 42,52 67,68zm219 -87c-3,12 -6,23 -9,34 -4,10 -14,20 -22,26 -27,20 -62,41 -101,61 33,6 68,8 105,8l64 0 0 81 -40 0c-65,0 -141,-10 -206,-37 -25,17 -49,35 -78,67 -32,36 -53,78 -57,126 -2,16 -1,34 2,54 18,20 39,35 63,44 53,20 112,22 169,17 32,-2 64,-6 98,-9l8 72c-96,12 -221,21 -312,-17 -42,-18 -83,-70 -88,-116 -5,-54 1,-101 23,-147 26,-52 62,-90 107,-127l1 0c-20,-15 -36,-32 -48,-52l-59 -91c-10,-15 -9,-28 -3,-47 2,-7 4,-14 8,-24 3,-9 8,-10 16,-15 14,-5 29,-10 45,-15 66,-22 158,-41 224,-18 32,12 62,32 77,60 11,22 18,42 13,65z"/>
 </g>
</svg>
