<?xml version="1.0" encoding="UTF-8"?>
<!DOCTYPE svg PUBLIC "-//W3C//DTD SVG 1.0//EN" "http://www.w3.org/TR/2001/REC-SVG-20010904/DTD/svg10.dtd">
<!-- Creator: CorelDRAW -->
<svg xmlns="http://www.w3.org/2000/svg" xml:space="preserve" width="1300px" height="1300px" version="1.0" style="shape-rendering:geometricPrecision; text-rendering:geometricPrecision; image-rendering:optimizeQuality; fill-rule:evenodd; clip-rule:evenodd"
viewBox="0 0 1300 1056"
 xmlns:xlink="http://www.w3.org/1999/xlink">
 <defs>
  <style type="text/css">
   <![CDATA[
    .fil0 {fill:#999933}
   ]]>
  </style>
 </defs>
 <g id="_100:master">
  <metadata id="CorelCorpID_0Corel-Layer"/>
  <path class="fil0" d="M505 650l-40 0 -1 0 0 0c-20,0 -40,-20 -40,-41 1,-20 20,-40 40,-40l0 0 41 0c41,0 83,-6 124,-16 -8,-9 -15,-18 -21,-28l-58 -91c-11,-15 -10,-28 -4,-47 2,-7 5,-14 8,-24 3,-9 8,-10 16,-15 14,-5 29,-10 45,-15 66,-22 158,-41 224,-18 32,12 62,32 77,60 11,22 18,42 13,65 -3,12 -6,23 -9,34 -4,10 -14,20 -22,26 -27,20 -62,41 -100,61 32,6 68,8 105,8l64 0 0 81 -41 0c-71,0 -157,-12 -225,-46 -70,27 -142,46 -196,46zm205 -123c59,-23 116,-53 167,-86 -10,-26 -23,-45 -40,-55 -38,-23 -93,-16 -140,-6 -29,7 -59,14 -90,24l0 0 36 55c20,30 42,52 67,68z"/>
 </g>
</svg>
