<?xml version="1.0" encoding="UTF-8"?>
<!DOCTYPE svg PUBLIC "-//W3C//DTD SVG 1.0//EN" "http://www.w3.org/TR/2001/REC-SVG-20010904/DTD/svg10.dtd">
<!-- Creator: CorelDRAW -->
<svg xmlns="http://www.w3.org/2000/svg" xml:space="preserve" width="1300px" height="1300px" version="1.0" style="shape-rendering:geometricPrecision; text-rendering:geometricPrecision; image-rendering:optimizeQuality; fill-rule:evenodd; clip-rule:evenodd"
viewBox="0 0 1300 1056"
 xmlns:xlink="http://www.w3.org/1999/xlink">
 <defs>
  <style type="text/css">
   <![CDATA[
    .fil0 {fill:#FF6633;fill-opacity:0.501961}
   ]]>
  </style>
 </defs>
 <g id="_100:master">
  <metadata id="CorelCorpID_0Corel-Layer"/>
  <path class="fil0" d="M750 506l21 78c-126,34 -286,59 -320,195 -5,23 -6,50 -2,80 18,20 40,35 64,44 82,32 179,18 266,8l9 72c-121,14 -331,39 -391,-99 -5,-12 -8,-23 -9,-34 -11,-104 18,-173 71,-222 -181,-223 -31,-384 120,-334 38,12 84,39 119,63l-28 42c-105,-69 -255,-52 -211,81 10,30 31,65 63,104 63,-34 142,-56 228,-78z"/>
 </g>
</svg>
