<?xml version="1.0" encoding="UTF-8"?>
<!DOCTYPE svg PUBLIC "-//W3C//DTD SVG 1.0//EN" "http://www.w3.org/TR/2001/REC-SVG-20010904/DTD/svg10.dtd">
<!-- Creator: CorelDRAW -->
<svg xmlns="http://www.w3.org/2000/svg" xml:space="preserve" width="1300px" height="1300px" version="1.0" style="shape-rendering:geometricPrecision; text-rendering:geometricPrecision; image-rendering:optimizeQuality; fill-rule:evenodd; clip-rule:evenodd"
viewBox="0 0 1300 1056"
 xmlns:xlink="http://www.w3.org/1999/xlink">
 <defs>
  <style type="text/css">
   <![CDATA[
    .fil0 {fill:#CCCC33}
   ]]>
  </style>
 </defs>
 <g id="_100:master">
  <metadata id="CorelCorpID_0Corel-Layer"/>
  <path class="fil0" d="M499 569c32,0 72,-2 113,-7 -28,-27 -45,-61 -45,-101 0,-126 105,-217 173,-217 92,0 176,147 149,232 -9,36 -30,65 -59,88 21,3 42,5 64,5l56 0 0 81 -56 0c-63,0 -126,-10 -180,-29 -75,22 -157,29 -215,29 -21,0 -41,-20 -41,-41 0,-21 20,-40 41,-40zm225 -32c47,-17 86,-42 104,-79 -8,-54 -42,-111 -93,-133 -53,16 -92,62 -105,120 -7,33 33,68 94,92z"/>
 </g>
</svg>
