<?xml version="1.0" encoding="UTF-8"?>
<!DOCTYPE svg PUBLIC "-//W3C//DTD SVG 1.0//EN" "http://www.w3.org/TR/2001/REC-SVG-20010904/DTD/svg10.dtd">
<!-- Creator: CorelDRAW -->
<svg xmlns="http://www.w3.org/2000/svg" xml:space="preserve" width="1300px" height="1300px" version="1.0" style="shape-rendering:geometricPrecision; text-rendering:geometricPrecision; image-rendering:optimizeQuality; fill-rule:evenodd; clip-rule:evenodd"
viewBox="0 0 1300 1056"
 xmlns:xlink="http://www.w3.org/1999/xlink">
 <defs>
  <style type="text/css">
   <![CDATA[
    .fil0 {fill:black;fill-opacity:0.501961}
   ]]>
  </style>
 </defs>
 <g id="_100:master">
  <metadata id="CorelCorpID_0Corel-Layer"/>
  <path class="fil0" d="M843 537c47,-17 86,-42 103,-79 -7,-54 -41,-111 -93,-133 -52,16 -91,62 -104,120 -7,33 33,68 94,92zm-1 88c-22,8 -44,14 -67,19 -154,34 -448,46 -448,-173 0,-61 27,-121 54,-171l44 24c-132,240 89,274 280,253 12,-2 24,-3 36,-6 -34,-29 -55,-66 -55,-110 0,-126 104,-217 173,-217 92,0 175,147 148,232 -8,36 -29,65 -58,88 21,3 42,5 63,5l57 0 0 81 -56 0c-59,0 -119,-8 -171,-25z"/>
 </g>
</svg>
