<?xml version="1.0" encoding="UTF-8"?>
<!DOCTYPE svg PUBLIC "-//W3C//DTD SVG 1.0//EN" "http://www.w3.org/TR/2001/REC-SVG-20010904/DTD/svg10.dtd">
<!-- Creator: CorelDRAW -->
<svg xmlns="http://www.w3.org/2000/svg" xml:space="preserve" width="1300px" height="1300px" version="1.0" style="shape-rendering:geometricPrecision; text-rendering:geometricPrecision; image-rendering:optimizeQuality; fill-rule:evenodd; clip-rule:evenodd"
viewBox="0 0 1300 1056"
 xmlns:xlink="http://www.w3.org/1999/xlink">
 <defs>
  <style type="text/css">
   <![CDATA[
    .fil0 {fill:#FF9933;fill-opacity:0.501961}
   ]]>
  </style>
 </defs>
 <g id="_100:master">
  <metadata id="CorelCorpID_0Corel-Layer"/>
  <path class="fil0" d="M906 539l0 0 0 0c1,-17 4,-44 3,-60 -58,11 -212,36 -241,-41 -43,-115 41,-249 123,-249 182,0 199,281 177,357 -6,29 -31,65 -57,75 -120,44 -382,72 -497,9 -136,-74 -97,-217 -38,-327l44 25c-29,48 -60,137 -24,187 83,113 406,64 510,24zm-3 -128c-18,-141 -134,-202 -179,-84 -12,29 -7,77 10,86 16,9 147,1 169,-2z"/>
 </g>
</svg>
