<?xml version="1.0" encoding="UTF-8"?>
<!DOCTYPE svg PUBLIC "-//W3C//DTD SVG 1.0//EN" "http://www.w3.org/TR/2001/REC-SVG-20010904/DTD/svg10.dtd">
<!-- Creator: CorelDRAW -->
<svg xmlns="http://www.w3.org/2000/svg" xml:space="preserve" width="1300px" height="1300px" version="1.0" style="shape-rendering:geometricPrecision; text-rendering:geometricPrecision; image-rendering:optimizeQuality; fill-rule:evenodd; clip-rule:evenodd"
viewBox="0 0 1300 1056"
 xmlns:xlink="http://www.w3.org/1999/xlink">
 <defs>
  <style type="text/css">
   <![CDATA[
    .fil0 {fill:#CC3399}
   ]]>
  </style>
 </defs>
 <g id="_100:master">
  <metadata id="CorelCorpID_0Corel-Layer"/>
  <path class="fil0" d="M974 505c-4,25 -19,64 -40,80 -78,58 -243,67 -344,67 -62,0 -124,-9 -173,-35 -34,-19 -60,-45 -76,-79 -28,-60 -17,-123 6,-182 9,-22 22,-50 32,-67l43 25c-20,39 -39,89 -39,133 0,72 70,105 134,117 68,13 181,8 253,-5 54,-10 110,-25 159,-51 -29,-86 -128,-163 -205,-206 -17,-9 -32,-16 -46,-22l13 -85c89,-65 205,-117 317,-145l16 65c-97,25 -199,66 -285,120 65,27 152,96 195,153 20,26 37,58 41,90 1,8 1,17 -1,27zm-270 -421c43,-29 137,-80 201,-93l9 33c-56,15 -146,59 -195,92l-15 -32z"/>
 </g>
</svg>
