<?xml version="1.0" encoding="UTF-8"?>
<!DOCTYPE svg PUBLIC "-//W3C//DTD SVG 1.0//EN" "http://www.w3.org/TR/2001/REC-SVG-20010904/DTD/svg10.dtd">
<!-- Creator: CorelDRAW -->
<svg xmlns="http://www.w3.org/2000/svg" xml:space="preserve" width="1300px" height="1300px" version="1.0" style="shape-rendering:geometricPrecision; text-rendering:geometricPrecision; image-rendering:optimizeQuality; fill-rule:evenodd; clip-rule:evenodd"
viewBox="0 0 1300 1056"
 xmlns:xlink="http://www.w3.org/1999/xlink">
 <defs>
  <style type="text/css">
   <![CDATA[
    .fil0 {fill:black}
   ]]>
  </style>
 </defs>
 <g id="_100:master">
  <metadata id="CorelCorpID_0Corel-Layer"/>
  <path class="fil0" d="M1015 569l0 81 -79 -5c71,46 33,203 -38,212 -136,17 -219,-74 -227,-208l-76 1 0 0c-1,0 -3,0 -4,0l0 0 0 0c-19,-3 -37,-21 -37,-41 1,-19 18,-38 37,-40l0 0 4 0 0 0 79 -1c13,-112 63,-221 145,-302 50,-49 123,193 108,247 -8,31 -57,55 -82,68 51,-14 111,-12 170,-12zm-150 -79c-6,-45 -25,-109 -47,-149 -45,57 -84,152 -88,227 54,-9 100,-35 135,-78zm-130 156c14,107 68,155 175,138 20,-63 -2,-134 -62,-137l-113 -1z"/>
 </g>
</svg>
