<?xml version="1.0" encoding="UTF-8"?>
<!DOCTYPE svg PUBLIC "-//W3C//DTD SVG 1.0//EN" "http://www.w3.org/TR/2001/REC-SVG-20010904/DTD/svg10.dtd">
<!-- Creator: CorelDRAW -->
<svg xmlns="http://www.w3.org/2000/svg" xml:space="preserve" width="1300px" height="1300px" version="1.0" style="shape-rendering:geometricPrecision; text-rendering:geometricPrecision; image-rendering:optimizeQuality; fill-rule:evenodd; clip-rule:evenodd"
viewBox="0 0 1300 1056"
 xmlns:xlink="http://www.w3.org/1999/xlink">
 <defs>
  <style type="text/css">
   <![CDATA[
    .fil0 {fill:black}
   ]]>
  </style>
 </defs>
 <g id="_100:master">
  <metadata id="CorelCorpID_0Corel-Layer"/>
  <path class="fil0" d="M405 650l0 0c-20,0 -40,-20 -40,-41 0,-20 20,-40 40,-40l0 0 41 0c19,0 55,-4 93,-11 -26,-25 -42,-54 -42,-88 0,-59 56,-134 100,-172l0 0c-12,-7 -25,-15 -38,-22l32 -56c327,186 434,214 359,428 -18,29 -49,36 -82,31 -56,-8 -159,-28 -242,-66 -62,21 -133,37 -181,37l-40 0zm228 -114c23,-7 42,-15 54,-23 15,-11 28,-25 39,-41 -2,-24 -9,-48 -21,-71 -12,-24 -29,-43 -51,-59 -36,21 -62,45 -84,82 -7,12 -13,25 -17,39 11,28 41,52 80,73zm120 -151c11,21 17,35 17,36 8,47 8,90 -24,127 -6,8 -16,16 -29,24 68,24 140,39 179,46 36,-113 -14,-158 -143,-233z"/>
 </g>
</svg>
