<?xml version="1.0" encoding="UTF-8"?>
<!DOCTYPE svg PUBLIC "-//W3C//DTD SVG 1.0//EN" "http://www.w3.org/TR/2001/REC-SVG-20010904/DTD/svg10.dtd">
<!-- Creator: CorelDRAW -->
<svg xmlns="http://www.w3.org/2000/svg" xml:space="preserve" width="1300px" height="1300px" version="1.0" style="shape-rendering:geometricPrecision; text-rendering:geometricPrecision; image-rendering:optimizeQuality; fill-rule:evenodd; clip-rule:evenodd"
viewBox="0 0 1300 1056"
 xmlns:xlink="http://www.w3.org/1999/xlink">
 <defs>
  <style type="text/css">
   <![CDATA[
    .fil0 {fill:#99CC66}
   ]]>
  </style>
 </defs>
 <g id="_100:master">
  <metadata id="CorelCorpID_0Corel-Layer"/>
  <path class="fil0" d="M896 505c-54,-90 -112,-162 -206,-216l13 -84c94,-67 197,-111 317,-146l16 66c-94,23 -206,69 -288,122 139,71 227,270 252,297 24,24 46,25 77,25l29 0 -1 81 -28 0c-97,0 -111,-22 -157,-103l-16 37c-40,48 -173,66 -234,66l0 0c-21,0 -41,-20 -41,-41 0,-21 20,-40 41,-40l0 0c93,0 142,-9 226,-64z"/>
 </g>
</svg>
