<?xml version="1.0" encoding="UTF-8"?>
<!DOCTYPE svg PUBLIC "-//W3C//DTD SVG 1.0//EN" "http://www.w3.org/TR/2001/REC-SVG-20010904/DTD/svg10.dtd">
<!-- Creator: CorelDRAW -->
<svg xmlns="http://www.w3.org/2000/svg" xml:space="preserve" width="1300px" height="1300px" version="1.0" style="shape-rendering:geometricPrecision; text-rendering:geometricPrecision; image-rendering:optimizeQuality; fill-rule:evenodd; clip-rule:evenodd"
viewBox="0 0 1300 1056"
 xmlns:xlink="http://www.w3.org/1999/xlink">
 <defs>
  <style type="text/css">
   <![CDATA[
    .fil0 {fill:gray;fill-opacity:0.501961}
   ]]>
  </style>
 </defs>
 <g id="_100:master">
  <metadata id="CorelCorpID_0Corel-Layer"/>
  <path class="fil0" d="M923 552l-14 32c-24,18 -51,33 -79,43 -134,50 -469,79 -502,-121 -12,-70 16,-148 51,-207l44 25c-116,211 35,263 234,256 80,-3 171,-24 241,-71l-2 -4c-54,-90 -112,-178 -206,-232l13 -84c94,-68 197,-112 317,-146l16 65c-94,24 -206,70 -288,123 139,71 227,286 252,313 24,24 46,25 77,25l29 0 -1 81 -28 0c-95,0 -110,-21 -154,-98z"/>
 </g>
</svg>
