<?xml version="1.0" encoding="UTF-8"?>
<!DOCTYPE svg PUBLIC "-//W3C//DTD SVG 1.0//EN" "http://www.w3.org/TR/2001/REC-SVG-20010904/DTD/svg10.dtd">
<!-- Creator: CorelDRAW -->
<svg xmlns="http://www.w3.org/2000/svg" xml:space="preserve" width="1300px" height="1300px" version="1.0" style="shape-rendering:geometricPrecision; text-rendering:geometricPrecision; image-rendering:optimizeQuality; fill-rule:evenodd; clip-rule:evenodd"
viewBox="0 0 1300 1056"
 xmlns:xlink="http://www.w3.org/1999/xlink">
 <defs>
  <style type="text/css">
   <![CDATA[
    .fil0 {fill:black}
   ]]>
  </style>
 </defs>
 <g id="_100:master">
  <metadata id="CorelCorpID_0Corel-Layer"/>
  <path class="fil0" d="M1089 569l0 81c-41,0 -82,-5 -114,-25 0,83 5,118 -49,189 -32,43 -128,75 -189,75 -181,0 -251,-128 -207,-296 22,-82 45,-137 72,-209l47 18c-61,160 -162,406 104,406 49,0 104,-32 147,-58l-1 1c9,-18 9,-58 9,-78l0 -673 67 0 0 446c0,95 29,123 114,123z"/>
 </g>
</svg>
