<?xml version="1.0" encoding="UTF-8"?>
<!DOCTYPE svg PUBLIC "-//W3C//DTD SVG 1.0//EN" "http://www.w3.org/TR/2001/REC-SVG-20010904/DTD/svg10.dtd">
<!-- Creator: CorelDRAW -->
<svg xmlns="http://www.w3.org/2000/svg" xml:space="preserve" width="1300px" height="1300px" version="1.0" style="shape-rendering:geometricPrecision; text-rendering:geometricPrecision; image-rendering:optimizeQuality; fill-rule:evenodd; clip-rule:evenodd"
viewBox="0 0 1300 1056"
 xmlns:xlink="http://www.w3.org/1999/xlink">
 <defs>
  <style type="text/css">
   <![CDATA[
    .fil0 {fill:black}
   ]]>
  </style>
 </defs>
 <g id="_100:master">
  <metadata id="CorelCorpID_0Corel-Layer"/>
  <path class="fil0" d="M898 497c1,10 2,21 3,32 1,11 2,22 2,32 0,4 0,8 0,12 0,4 -1,7 -1,11 0,4 -2,10 -4,17 -2,7 -6,13 -10,17 -7,7 -15,15 -25,22 -9,6 -18,10 -27,10 -9,0 -19,-3 -29,-10 -11,-6 -22,-14 -33,-23 -3,3 -7,7 -12,11 -7,5 -14,9 -22,13 -9,3 -17,5 -26,5 -18,0 -34,-8 -46,-22 -13,-14 -20,-35 -20,-63 0,-10 1,-21 2,-32 0,-11 2,-22 3,-32l37 3c-1,10 -2,19 -3,29 0,9 -1,18 -1,28 0,13 3,25 8,35 4,10 11,15 20,15 6,0 11,-1 15,-3 5,-2 9,-5 15,-9 3,-1 5,-4 7,-6 2,-3 4,-7 6,-12 2,-6 5,-13 7,-21 2,-9 5,-21 8,-34 1,-5 2,-9 3,-13 1,-4 2,-9 2,-13l33 7c-1,3 -2,7 -2,11 -1,4 -2,8 -2,12 -3,11 -5,22 -7,31 -2,10 -5,18 -8,27 8,7 16,13 23,18 8,6 15,8 21,8 7,0 13,-2 18,-7 5,-4 8,-8 10,-11 2,-2 3,-6 3,-10 0,-12 0,-26 -1,-39 -1,-14 -2,-28 -4,-43l37 -3z"/>
 </g>
</svg>
