<?xml version="1.0" encoding="UTF-8"?>
<!DOCTYPE svg PUBLIC "-//W3C//DTD SVG 1.0//EN" "http://www.w3.org/TR/2001/REC-SVG-20010904/DTD/svg10.dtd">
<!-- Creator: CorelDRAW -->
<svg xmlns="http://www.w3.org/2000/svg" xml:space="preserve" width="1300px" height="1300px" version="1.0" style="shape-rendering:geometricPrecision; text-rendering:geometricPrecision; image-rendering:optimizeQuality; fill-rule:evenodd; clip-rule:evenodd"
viewBox="0 0 1300 1056"
 xmlns:xlink="http://www.w3.org/1999/xlink">
 <defs>
  <style type="text/css">
   <![CDATA[
    .fil0 {fill:black}
   ]]>
  </style>
 </defs>
 <g id="_100:master">
  <metadata id="CorelCorpID_0Corel-Layer"/>
  <path class="fil0" d="M1146 569l0 81c-74,0 -130,-26 -170,-90 -5,53 -30,123 -89,118 -80,-6 -177,-75 -241,-85 -31,60 -12,218 -6,292l-65 4c-6,-92 -35,-328 58,-367 6,-3 12,-4 20,-6 23,-66 84,-183 163,-183 159,0 144,236 330,236zm-251 31c42,-87 -16,-191 -79,-191 -51,0 -90,79 -106,120 59,26 121,60 185,71z"/>
 </g>
</svg>
