<?xml version="1.0" encoding="UTF-8"?>
<!DOCTYPE svg PUBLIC "-//W3C//DTD SVG 1.0//EN" "http://www.w3.org/TR/2001/REC-SVG-20010904/DTD/svg10.dtd">
<!-- Creator: CorelDRAW -->
<svg xmlns="http://www.w3.org/2000/svg" xml:space="preserve" width="1300px" height="1300px" version="1.0" style="shape-rendering:geometricPrecision; text-rendering:geometricPrecision; image-rendering:optimizeQuality; fill-rule:evenodd; clip-rule:evenodd"
viewBox="0 0 1300 1056"
 xmlns:xlink="http://www.w3.org/1999/xlink">
 <defs>
  <style type="text/css">
   <![CDATA[
    .fil0 {fill:black}
   ]]>
  </style>
 </defs>
 <g id="_100:master">
  <metadata id="CorelCorpID_0Corel-Layer"/>
  <path class="fil0" d="M503 569c171,0 207,-315 376,-220 144,83 109,341 3,332 -72,-6 -172,-53 -233,-96 -41,40 -86,65 -146,65l0 0c-20,0 -41,-20 -41,-41 1,-21 21,-40 41,-40l0 0zm194 -41c60,43 123,66 194,74 53,-109 -44,-228 -107,-183 -33,24 -62,74 -87,109z"/>
 </g>
</svg>
