<?xml version="1.0" encoding="UTF-8"?>
<!DOCTYPE svg PUBLIC "-//W3C//DTD SVG 1.0//EN" "http://www.w3.org/TR/2001/REC-SVG-20010904/DTD/svg10.dtd">
<!-- Creator: CorelDRAW -->
<svg xmlns="http://www.w3.org/2000/svg" xml:space="preserve" width="1300px" height="1300px" version="1.0" style="shape-rendering:geometricPrecision; text-rendering:geometricPrecision; image-rendering:optimizeQuality; fill-rule:evenodd; clip-rule:evenodd"
viewBox="0 0 1300 1056"
 xmlns:xlink="http://www.w3.org/1999/xlink">
 <defs>
  <style type="text/css">
   <![CDATA[
    .fil0 {fill:black}
   ]]>
  </style>
 </defs>
 <g id="_100:master">
  <metadata id="CorelCorpID_0Corel-Layer"/>
  <path class="fil0" d="M506 650l0 0c-19,-2 -37,-21 -37,-41 0,-21 20,-40 41,-40l0 0c23,0 44,-6 63,-17 20,-12 39,-27 55,-44 17,-18 32,-36 46,-57 15,-20 29,-39 44,-57 15,-17 30,-32 45,-44 16,-11 34,-17 53,-17 14,0 28,2 41,6 40,14 69,43 91,79l0 0c13,21 26,41 39,59 13,18 27,34 42,48 16,14 33,24 51,32 19,8 41,12 65,12l0 81c-17,0 -33,-1 -49,-4 -53,-10 -92,-41 -120,-86 -2,16 -5,30 -7,43 -4,13 -7,23 -12,31 -7,12 -15,21 -25,30 -24,20 -40,20 -68,14 -34,-6 -68,-18 -100,-31 -19,-7 -38,-16 -57,-27 -19,-10 -37,-22 -56,-34 -18,18 -39,33 -63,46 -23,12 -51,18 -82,18zm194 -122c31,23 62,40 94,51 33,12 66,19 100,23 5,-10 9,-21 11,-33 3,-11 4,-24 4,-40 0,-13 -3,-27 -8,-41 -9,-27 -26,-52 -50,-67 -11,-8 -23,-11 -35,-11 -10,0 -20,3 -30,10 -9,6 -18,15 -28,27 -9,11 -19,23 -28,38 -10,14 -20,29 -30,43z"/>
 </g>
</svg>
