<?xml version="1.0" encoding="UTF-8"?>
<!DOCTYPE svg PUBLIC "-//W3C//DTD SVG 1.0//EN" "http://www.w3.org/TR/2001/REC-SVG-20010904/DTD/svg10.dtd">
<!-- Creator: CorelDRAW -->
<svg xmlns="http://www.w3.org/2000/svg" xml:space="preserve" width="1300px" height="1300px" version="1.0" style="shape-rendering:geometricPrecision; text-rendering:geometricPrecision; image-rendering:optimizeQuality; fill-rule:evenodd; clip-rule:evenodd"
viewBox="0 0 1300 1056"
 xmlns:xlink="http://www.w3.org/1999/xlink">
 <defs>
  <style type="text/css">
   <![CDATA[
    .fil0 {fill:black}
   ]]>
  </style>
 </defs>
 <g id="_100:master">
  <metadata id="CorelCorpID_0Corel-Layer"/>
  <path class="fil0" d="M707 530c31,9 32,15 92,40 56,23 70,21 94,30 11,-23 14,-44 14,-71 0,-42 -24,-86 -58,-109 -69,-45 -121,57 -142,109l0 1zm248 103c-2,8 -32,48 -71,45 -79,-7 -176,-76 -241,-86 -30,61 -11,218 -6,293l-64 3c-6,-83 -26,-278 25,-340 16,-19 27,-28 52,-32 21,-58 59,-130 110,-166 17,-12 35,-18 54,-18 72,0 126,57 149,122 17,49 18,133 -8,179z"/>
 </g>
</svg>
