<?xml version="1.0" encoding="UTF-8"?>
<!DOCTYPE svg PUBLIC "-//W3C//DTD SVG 1.0//EN" "http://www.w3.org/TR/2001/REC-SVG-20010904/DTD/svg10.dtd">
<!-- Creator: CorelDRAW -->
<svg xmlns="http://www.w3.org/2000/svg" xml:space="preserve" width="1300px" height="1300px" version="1.0" style="shape-rendering:geometricPrecision; text-rendering:geometricPrecision; image-rendering:optimizeQuality; fill-rule:evenodd; clip-rule:evenodd"
viewBox="0 0 1300 1056"
 xmlns:xlink="http://www.w3.org/1999/xlink">
 <defs>
  <style type="text/css">
   <![CDATA[
    .fil0 {fill:#FF9933;fill-opacity:0.501961}
   ]]>
  </style>
 </defs>
 <g id="_100:master">
  <metadata id="CorelCorpID_0Corel-Layer"/>
  <path class="fil0" d="M955 463l0 0c5,28 34,106 113,106l0 81c-38,0 -69,-12 -95,-37 5,62 3,117 -10,148 -28,64 -49,72 -102,94 -227,97 -440,8 -371,-258 20,-79 45,-138 72,-208l47 18c-34,84 -95,242 -62,324 37,90 156,93 243,69 33,-10 69,-24 108,-44 28,-96 -17,-303 -37,-404l71 -14c6,29 15,74 23,125z"/>
 </g>
</svg>
