<?xml version="1.0" encoding="UTF-8"?>
<!DOCTYPE svg PUBLIC "-//W3C//DTD SVG 1.0//EN" "http://www.w3.org/TR/2001/REC-SVG-20010904/DTD/svg10.dtd">
<!-- Creator: CorelDRAW -->
<svg xmlns="http://www.w3.org/2000/svg" xml:space="preserve" width="1300px" height="1300px" version="1.0" style="shape-rendering:geometricPrecision; text-rendering:geometricPrecision; image-rendering:optimizeQuality; fill-rule:evenodd; clip-rule:evenodd"
viewBox="0 0 1300 1056"
 xmlns:xlink="http://www.w3.org/1999/xlink">
 <defs>
  <style type="text/css">
   <![CDATA[
    .fil0 {fill:black}
   ]]>
  </style>
 </defs>
 <g id="_100:master">
  <metadata id="CorelCorpID_0Corel-Layer"/>
  <path class="fil0" d="M692 348c-39,0 -67,-12 -93,-39l8 341 -71 0c0,-268 -4,-383 -48,-638l70 -12c12,65 23,176 55,222 45,65 136,54 170,-28 20,-48 34,-119 45,-174l67 13 -39 175c52,56 107,98 163,25 19,-26 0,-186 -5,-224l77 -9c8,60 35,234 -20,290 -92,93 -148,82 -251,-7 -29,37 -82,65 -128,65z"/>
 </g>
</svg>
