<?xml version="1.0" encoding="UTF-8"?>
<!DOCTYPE svg PUBLIC "-//W3C//DTD SVG 1.0//EN" "http://www.w3.org/TR/2001/REC-SVG-20010904/DTD/svg10.dtd">
<!-- Creator: CorelDRAW -->
<svg xmlns="http://www.w3.org/2000/svg" xml:space="preserve" width="1300px" height="1300px" version="1.0" style="shape-rendering:geometricPrecision; text-rendering:geometricPrecision; image-rendering:optimizeQuality; fill-rule:evenodd; clip-rule:evenodd"
viewBox="0 0 1300 1056"
 xmlns:xlink="http://www.w3.org/1999/xlink">
 <defs>
  <style type="text/css">
   <![CDATA[
    .fil0 {fill:black}
   ]]>
  </style>
 </defs>
 <g id="_100:master">
  <metadata id="CorelCorpID_0Corel-Layer"/>
  <path class="fil0" d="M539 657c-136,0 -163,-115 -122,-235 39,-114 110,-226 171,-330l-41 -28 43 -64c158,107 363,251 365,458 1,92 -34,166 -122,201 -58,24 -119,-26 -166,-69 -29,36 -82,67 -128,67zm92 -535c-42,68 -167,282 -169,355 -5,121 100,100 128,78 47,-35 59,-100 70,-154l67 13 -24 101c65,68 106,90 159,30 29,-34 15,-122 -2,-165 -40,-104 -139,-194 -229,-258z"/>
 </g>
</svg>
