<?xml version="1.0" encoding="UTF-8"?>
<!DOCTYPE svg PUBLIC "-//W3C//DTD SVG 1.0//EN" "http://www.w3.org/TR/2001/REC-SVG-20010904/DTD/svg10.dtd">
<!-- Creator: CorelDRAW -->
<svg xmlns="http://www.w3.org/2000/svg" xml:space="preserve" width="1300px" height="1300px" version="1.0" style="shape-rendering:geometricPrecision; text-rendering:geometricPrecision; image-rendering:optimizeQuality; fill-rule:evenodd; clip-rule:evenodd"
viewBox="0 0 1300 1056"
 xmlns:xlink="http://www.w3.org/1999/xlink">
 <defs>
  <style type="text/css">
   <![CDATA[
    .fil0 {fill:black}
   ]]>
  </style>
 </defs>
 <g id="_100:master">
  <metadata id="CorelCorpID_0Corel-Layer"/>
  <path class="fil0" d="M509 96c31,112 5,104 68,145 -21,-70 -6,-183 68,-219 110,-52 177,-5 263,65l-34 41c-54,-41 -70,-67 -151,-52 -20,3 -43,13 -70,28 -20,19 -17,87 -5,124 6,16 14,33 24,49 79,11 183,-13 263,-27l15 85c-131,23 -279,62 -398,-12 13,104 19,215 19,327l-71 0c0,-164 -14,-446 -78,-588l65 -29c6,13 13,34 22,63z"/>
 </g>
</svg>
