<?xml version="1.0" encoding="UTF-8"?>
<!DOCTYPE svg PUBLIC "-//W3C//DTD SVG 1.0//EN" "http://www.w3.org/TR/2001/REC-SVG-20010904/DTD/svg10.dtd">
<!-- Creator: CorelDRAW -->
<svg xmlns="http://www.w3.org/2000/svg" xml:space="preserve" width="1300px" height="1300px" version="1.0" style="shape-rendering:geometricPrecision; text-rendering:geometricPrecision; image-rendering:optimizeQuality; fill-rule:evenodd; clip-rule:evenodd"
viewBox="0 0 1300 1056"
 xmlns:xlink="http://www.w3.org/1999/xlink">
 <defs>
  <style type="text/css">
   <![CDATA[
    .fil0 {fill:black}
   ]]>
  </style>
 </defs>
 <g id="_100:master">
  <metadata id="CorelCorpID_0Corel-Layer"/>
  <path class="fil0" d="M901 183l35 69c-148,77 -224,130 -328,278 -29,41 -57,88 -83,140l-65 -30c56,-108 119,-206 193,-285 -110,-50 -174,-120 -146,-238 17,-74 115,-135 209,-112l98 34 -21 49c-65,-26 -90,-41 -159,-6 -18,10 -38,25 -59,46 -8,17 1,63 23,90 27,35 73,60 118,77l-1 2c69,-57 110,-75 186,-114z"/>
 </g>
</svg>
