<?xml version="1.0" encoding="UTF-8"?>
<!DOCTYPE svg PUBLIC "-//W3C//DTD SVG 1.0//EN" "http://www.w3.org/TR/2001/REC-SVG-20010904/DTD/svg10.dtd">
<!-- Creator: CorelDRAW -->
<svg xmlns="http://www.w3.org/2000/svg" xml:space="preserve" width="1300px" height="1300px" version="1.0" style="shape-rendering:geometricPrecision; text-rendering:geometricPrecision; image-rendering:optimizeQuality; fill-rule:evenodd; clip-rule:evenodd"
viewBox="0 0 1300 1056"
 xmlns:xlink="http://www.w3.org/1999/xlink">
 <defs>
  <style type="text/css">
   <![CDATA[
    .fil0 {fill:black}
   ]]>
  </style>
 </defs>
 <g id="_100:master">
  <metadata id="CorelCorpID_0Corel-Layer"/>
  <path class="fil0" d="M969 569l55 0 0 81 -50 0c0,26 -1,52 -2,75 -3,33 -37,93 -69,106 -67,27 -170,57 -243,57 -90,0 -172,-34 -205,-119 -21,-54 -17,-117 -1,-178 20,-79 43,-137 72,-208l47 18c-31,76 -45,116 -64,197 -20,88 -8,165 77,196 26,9 55,13 90,13 26,0 69,-7 98,-14 43,-10 90,-25 130,-45 4,-36 5,-70 3,-104l1 0 0 -8c-59,12 -213,37 -241,-40 -43,-116 41,-249 123,-249 117,0 166,118 179,222zm-68 -1c-18,-141 -134,-201 -179,-84 -11,29 -6,78 10,87 16,8 147,0 169,-3z"/>
 </g>
</svg>
