<?xml version="1.0" encoding="UTF-8"?>
<!DOCTYPE svg PUBLIC "-//W3C//DTD SVG 1.0//EN" "http://www.w3.org/TR/2001/REC-SVG-20010904/DTD/svg10.dtd">
<!-- Creator: CorelDRAW -->
<svg xmlns="http://www.w3.org/2000/svg" xml:space="preserve" width="1300px" height="1300px" version="1.0" style="shape-rendering:geometricPrecision; text-rendering:geometricPrecision; image-rendering:optimizeQuality; fill-rule:evenodd; clip-rule:evenodd"
viewBox="0 0 1300 1056"
 xmlns:xlink="http://www.w3.org/1999/xlink">
 <defs>
  <style type="text/css">
   <![CDATA[
    .fil0 {fill:black}
   ]]>
  </style>
 </defs>
 <g id="_100:master">
  <metadata id="CorelCorpID_0Corel-Layer"/>
  <path class="fil0" d="M1062 569l0 81c-38,0 -70,-12 -96,-38 2,53 -4,81 -32,125 -27,42 -67,91 -110,114 -29,16 -48,9 -79,-2l-49 -20 15 -36c37,15 66,12 96,-13 31,-24 56,-59 78,-93 21,-34 21,-79 16,-119 -4,-43 -17,-114 -26,-157 -3,-15 -6,-29 -8,-41l63 -12 17 96c10,61 47,115 115,115z"/>
 </g>
</svg>
