<?xml version="1.0" encoding="UTF-8"?>
<!DOCTYPE svg PUBLIC "-//W3C//DTD SVG 1.0//EN" "http://www.w3.org/TR/2001/REC-SVG-20010904/DTD/svg10.dtd">
<!-- Creator: CorelDRAW -->
<svg xmlns="http://www.w3.org/2000/svg" xml:space="preserve" width="1300px" height="1300px" version="1.0" style="shape-rendering:geometricPrecision; text-rendering:geometricPrecision; image-rendering:optimizeQuality; fill-rule:evenodd; clip-rule:evenodd"
viewBox="0 0 1300 1056"
 xmlns:xlink="http://www.w3.org/1999/xlink">
 <defs>
  <style type="text/css">
   <![CDATA[
    .fil0 {fill:#999933;fill-opacity:0.501961}
   ]]>
  </style>
 </defs>
 <g id="_100:master">
  <metadata id="CorelCorpID_0Corel-Layer"/>
  <path class="fil0" d="M770 288c106,4 215,125 225,227l-2 1 1 0c6,36 -25,85 -58,95 -111,36 -193,46 -307,47 -52,0 -97,-11 -132,-43 4,61 2,115 -11,146 -27,64 -48,72 -101,94 -227,97 -440,8 -371,-258 20,-79 44,-138 71,-208l48 18c-34,84 -96,242 -62,324 37,90 156,93 243,69 32,-10 68,-24 108,-44 28,-96 -17,-303 -38,-404l72 -14c6,32 16,82 25,138 3,11 7,22 13,33 8,17 22,32 40,44 42,-84 147,-268 236,-265zm162 241l-1 -1c-17,-87 -88,-148 -173,-169 -75,30 -142,138 -182,212l1 0c17,4 34,6 52,6 47,0 96,-4 147,-11 51,-7 103,-19 155,-37l1 0z"/>
 </g>
</svg>
