<?xml version="1.0" encoding="UTF-8"?>
<!DOCTYPE svg PUBLIC "-//W3C//DTD SVG 1.0//EN" "http://www.w3.org/TR/2001/REC-SVG-20010904/DTD/svg10.dtd">
<!-- Creator: CorelDRAW -->
<svg xmlns="http://www.w3.org/2000/svg" xml:space="preserve" width="1300px" height="1300px" version="1.0" style="shape-rendering:geometricPrecision; text-rendering:geometricPrecision; image-rendering:optimizeQuality; fill-rule:evenodd; clip-rule:evenodd"
viewBox="0 0 1300 1056"
 xmlns:xlink="http://www.w3.org/1999/xlink">
 <defs>
  <style type="text/css">
   <![CDATA[
    .fil0 {fill:black}
   ]]>
  </style>
 </defs>
 <g id="_100:master">
  <metadata id="CorelCorpID_0Corel-Layer"/>
  <g>
   <path class="fil0" d="M741 317c8,7 16,14 23,21 7,7 14,13 22,21l-63 63c-9,-8 -17,-16 -25,-23 -8,-8 -15,-15 -21,-24 -6,-8 -10,-17 -14,-27 -4,-9 -5,-21 -5,-34 1,-25 9,-49 23,-73 15,-24 34,-46 56,-68l38 39c-5,6 -10,11 -16,17 -5,6 -10,12 -15,18 -4,6 -8,12 -11,19 -3,6 -4,12 -5,18 -1,6 0,12 2,17 2,6 6,11 11,16l0 0zm-81 222l63 -63 62 63 -62 63 -63 -63z"/>
  </g>
 </g>
</svg>
