<?xml version="1.0" encoding="UTF-8"?>
<!DOCTYPE svg PUBLIC "-//W3C//DTD SVG 1.0//EN" "http://www.w3.org/TR/2001/REC-SVG-20010904/DTD/svg10.dtd">
<!-- Creator: CorelDRAW -->
<svg xmlns="http://www.w3.org/2000/svg" xml:space="preserve" width="1300px" height="1300px" version="1.0" style="shape-rendering:geometricPrecision; text-rendering:geometricPrecision; image-rendering:optimizeQuality; fill-rule:evenodd; clip-rule:evenodd"
viewBox="0 0 1300 1056"
 xmlns:xlink="http://www.w3.org/1999/xlink">
 <defs>
  <style type="text/css">
   <![CDATA[
    .fil0 {fill:#CC6633;fill-opacity:0.501961}
   ]]>
  </style>
 </defs>
 <g id="_100:master">
  <metadata id="CorelCorpID_0Corel-Layer"/>
  <path class="fil0" d="M731 512c26,26 100,86 128,70 51,-30 52,-70 51,-131l0 -126 65 0 0 105c0,74 8,139 101,139l0 81c-55,0 -105,-11 -134,-53 -18,34 -68,83 -121,62 -34,-13 -89,-49 -121,-75 -14,22 -31,40 -54,53 -24,14 -50,20 -76,20 -22,1 -47,-8 -69,-24 3,53 0,100 -12,128 -27,64 -48,72 -101,94 -227,97 -440,8 -371,-258 20,-79 45,-138 72,-208l47 18c-34,84 -95,242 -62,324 37,90 156,93 243,69 32,-10 69,-24 108,-44 28,-96 -17,-303 -38,-404l72 -14c5,25 13,63 20,105l0 0 0 0c2,10 3,21 5,32 14,64 49,101 84,101 37,0 72,-19 90,-62 19,-43 33,-113 44,-166l63 12c-11,45 -18,101 -34,152z"/>
 </g>
</svg>
