<?xml version="1.0" encoding="UTF-8"?>
<!DOCTYPE svg PUBLIC "-//W3C//DTD SVG 1.0//EN" "http://www.w3.org/TR/2001/REC-SVG-20010904/DTD/svg10.dtd">
<!-- Creator: CorelDRAW -->
<svg xmlns="http://www.w3.org/2000/svg" xml:space="preserve" width="1300px" height="1300px" version="1.0" style="shape-rendering:geometricPrecision; text-rendering:geometricPrecision; image-rendering:optimizeQuality; fill-rule:evenodd; clip-rule:evenodd"
viewBox="0 0 1300 1056"
 xmlns:xlink="http://www.w3.org/1999/xlink">
 <defs>
  <style type="text/css">
   <![CDATA[
    .fil0 {fill:black}
   ]]>
  </style>
 </defs>
 <g id="_100:master">
  <metadata id="CorelCorpID_0Corel-Layer"/>
  <path class="fil0" d="M842 168l0 43c0,14 -1,27 -2,42 -1,14 -2,29 -3,43 13,-5 27,-10 40,-16 14,-5 27,-10 40,-14l41 -14 18 55 -42 13c-12,4 -26,8 -40,12 -14,3 -28,7 -42,10 9,11 19,22 28,34 9,11 18,22 26,33l25 35 -46 34 -25 -35c-8,-11 -16,-23 -24,-35 -8,-13 -16,-25 -23,-37 -8,12 -15,24 -23,37 -8,12 -16,24 -23,35l-27 35 -46 -34 26 -35c8,-11 17,-22 26,-33 9,-11 19,-23 28,-34 -14,-3 -28,-7 -43,-10 -14,-4 -27,-8 -40,-12l-42 -13 18 -55 42 14c12,4 26,9 39,14 14,6 27,11 41,16 -1,-14 -2,-29 -3,-43 -1,-15 -2,-28 -2,-42l0 -43 58 0z"/>
 </g>
</svg>
