<?xml version="1.0" encoding="UTF-8"?>
<!DOCTYPE svg PUBLIC "-//W3C//DTD SVG 1.0//EN" "http://www.w3.org/TR/2001/REC-SVG-20010904/DTD/svg10.dtd">
<!-- Creator: CorelDRAW -->
<svg xmlns="http://www.w3.org/2000/svg" xml:space="preserve" width="1300px" height="1300px" version="1.0" style="shape-rendering:geometricPrecision; text-rendering:geometricPrecision; image-rendering:optimizeQuality; fill-rule:evenodd; clip-rule:evenodd"
viewBox="0 0 1300 1056"
 xmlns:xlink="http://www.w3.org/1999/xlink">
 <defs>
  <style type="text/css">
   <![CDATA[
    .fil0 {fill:black}
   ]]>
  </style>
 </defs>
 <g id="_100:master">
  <metadata id="CorelCorpID_0Corel-Layer"/>
  <path class="fil0" d="M701 77c14,20 28,42 42,66 15,25 28,52 40,80 12,29 22,58 29,89 8,32 12,63 12,95 0,32 -4,63 -12,94 -7,31 -17,60 -29,89 -12,28 -25,55 -40,80 -14,25 -28,47 -42,66l-46 -33c15,-21 29,-44 41,-67 13,-23 23,-47 33,-72 8,-24 15,-50 20,-76 5,-26 8,-53 8,-81 0,-28 -3,-55 -8,-81 -5,-27 -12,-52 -20,-77 -10,-25 -20,-49 -33,-72 -12,-23 -26,-45 -41,-67l46 -33z"/>
 </g>
</svg>
