<?xml version="1.0" encoding="UTF-8"?>
<!DOCTYPE svg PUBLIC "-//W3C//DTD SVG 1.0//EN" "http://www.w3.org/TR/2001/REC-SVG-20010904/DTD/svg10.dtd">
<!-- Creator: CorelDRAW -->
<svg xmlns="http://www.w3.org/2000/svg" xml:space="preserve" width="1300px" height="1300px" version="1.0" style="shape-rendering:geometricPrecision; text-rendering:geometricPrecision; image-rendering:optimizeQuality; fill-rule:evenodd; clip-rule:evenodd"
viewBox="0 0 1300 1056"
 xmlns:xlink="http://www.w3.org/1999/xlink">
 <defs>
  <style type="text/css">
   <![CDATA[
    .fil0 {fill:red;fill-opacity:0.501961}
   ]]>
  </style>
 </defs>
 <g id="_100:master">
  <metadata id="CorelCorpID_0Corel-Layer"/>
  <path class="fil0" d="M421 584c-48,57 -137,66 -210,66l0 0 0 0 0 0c-21,0 -41,-20 -41,-41 1,-21 21,-40 41,-40l0 0c175,0 192,-69 223,-221l63 12c-14,68 -18,111 -35,153 45,77 158,91 196,1 19,-43 33,-113 44,-166l63 12c-11,46 -18,104 -35,156 58,55 113,107 163,31 22,-33 -7,-224 -16,-267l72 -13c18,120 40,228 7,305 -58,137 -178,107 -260,19 -14,19 -30,35 -50,46 -72,41 -166,18 -225,-53z"/>
 </g>
</svg>
