<?xml version="1.0" encoding="UTF-8"?>
<!DOCTYPE svg PUBLIC "-//W3C//DTD SVG 1.0//EN" "http://www.w3.org/TR/2001/REC-SVG-20010904/DTD/svg10.dtd">
<!-- Creator: CorelDRAW -->
<svg xmlns="http://www.w3.org/2000/svg" xml:space="preserve" width="1300px" height="1300px" version="1.0" style="shape-rendering:geometricPrecision; text-rendering:geometricPrecision; image-rendering:optimizeQuality; fill-rule:evenodd; clip-rule:evenodd"
viewBox="0 0 1300 1056"
 xmlns:xlink="http://www.w3.org/1999/xlink">
 <defs>
  <style type="text/css">
   <![CDATA[
    .fil0 {fill:black}
   ]]>
  </style>
 </defs>
 <g id="_100:master">
  <metadata id="CorelCorpID_0Corel-Layer"/>
  <path class="fil0" d="M795 216c-27,32 -46,64 -58,97 -12,33 -18,67 -18,100 0,34 6,68 18,101 12,33 31,65 58,97l-44 37c-30,-36 -54,-74 -72,-114 -18,-40 -27,-80 -27,-121 0,-40 9,-80 27,-120 18,-39 42,-77 72,-114l44 37zm82 425c-31,-36 -54,-73 -70,-110 -15,-38 -23,-77 -23,-118 0,-40 8,-79 23,-117 16,-37 39,-74 70,-110l40 33c-27,32 -45,64 -56,96 -11,32 -17,65 -17,98 0,34 6,67 17,99 11,32 29,64 56,96l-40 33z"/>
 </g>
</svg>
