<?xml version="1.0" encoding="UTF-8"?>
<!DOCTYPE svg PUBLIC "-//W3C//DTD SVG 1.0//EN" "http://www.w3.org/TR/2001/REC-SVG-20010904/DTD/svg10.dtd">
<!-- Creator: CorelDRAW -->
<svg xmlns="http://www.w3.org/2000/svg" xml:space="preserve" width="1300px" height="1300px" version="1.0" style="shape-rendering:geometricPrecision; text-rendering:geometricPrecision; image-rendering:optimizeQuality; fill-rule:evenodd; clip-rule:evenodd"
viewBox="0 0 1300 1056"
 xmlns:xlink="http://www.w3.org/1999/xlink">
 <defs>
  <style type="text/css">
   <![CDATA[
    .fil0 {fill:black}
   ]]>
  </style>
 </defs>
 <g id="_100:master">
  <metadata id="CorelCorpID_0Corel-Layer"/>
  <path class="fil0" d="M909 537c0,6 -14,30 -42,71 -55,-37 -87,-59 -99,-65 15,-28 32,-56 51,-83 60,35 90,60 90,77l0 0zm-226 -437c0,13 -14,40 -41,79 -58,-40 -91,-62 -99,-66 15,-30 31,-58 49,-83 15,8 91,49 91,70zm-155 528c0,-12 3,-23 9,-30 124,-189 227,-380 309,-571 5,-12 13,-19 23,-19 17,0 26,9 26,28l0 3c-26,75 -71,172 -133,292 -62,119 -123,217 -184,292 -13,16 -24,24 -34,24 -11,0 -16,-7 -16,-19l0 0z"/>
 </g>
</svg>
