<?xml version="1.0" encoding="UTF-8"?>
<!DOCTYPE svg PUBLIC "-//W3C//DTD SVG 1.0//EN" "http://www.w3.org/TR/2001/REC-SVG-20010904/DTD/svg10.dtd">
<!-- Creator: CorelDRAW -->
<svg xmlns="http://www.w3.org/2000/svg" xml:space="preserve" width="1300px" height="1300px" version="1.0" style="shape-rendering:geometricPrecision; text-rendering:geometricPrecision; image-rendering:optimizeQuality; fill-rule:evenodd; clip-rule:evenodd"
viewBox="0 0 1300 1056"
 xmlns:xlink="http://www.w3.org/1999/xlink">
 <defs>
  <style type="text/css">
   <![CDATA[
    .fil0 {fill:black}
   ]]>
  </style>
 </defs>
 <g id="_100:master">
  <metadata id="CorelCorpID_0Corel-Layer"/>
  <path class="fil0" d="M653 616c26,-32 45,-63 56,-96 11,-32 16,-65 16,-99 0,-33 -5,-66 -16,-98 -11,-32 -30,-64 -56,-95l40 -34c30,37 53,73 69,111 16,37 24,76 24,116 0,41 -8,81 -24,118 -16,37 -39,74 -69,110l-40 -33zm166 -429c30,37 54,75 72,114 18,40 27,80 27,120 0,41 -9,82 -27,121 -18,40 -42,78 -72,114l-44 -37c26,-31 45,-64 58,-97 12,-33 18,-67 18,-101 0,-33 -6,-66 -18,-100 -13,-33 -32,-65 -58,-97l44 -37z"/>
 </g>
</svg>
