<?xml version="1.0" encoding="UTF-8"?>
<!DOCTYPE svg PUBLIC "-//W3C//DTD SVG 1.0//EN" "http://www.w3.org/TR/2001/REC-SVG-20010904/DTD/svg10.dtd">
<!-- Creator: CorelDRAW -->
<svg xmlns="http://www.w3.org/2000/svg" xml:space="preserve" width="1300px" height="1300px" version="1.0" style="shape-rendering:geometricPrecision; text-rendering:geometricPrecision; image-rendering:optimizeQuality; fill-rule:evenodd; clip-rule:evenodd"
viewBox="0 0 1300 1056"
 xmlns:xlink="http://www.w3.org/1999/xlink">
 <defs>
  <style type="text/css">
   <![CDATA[
    .fil0 {fill:#66FFCC}
   ]]>
  </style>
 </defs>
 <g id="_100:master">
  <metadata id="CorelCorpID_0Corel-Layer"/>
  <path class="fil0" d="M505 569l0 -1 1 1 -1 0zm-48 0l0 0 48 0 0 -1 0 0c7,-13 13,-26 20,-39 10,-20 13,-40 16,-68 5,-55 5,-126 5,-195l0 -267 67 0 0 267c0,50 -6,100 -17,146 46,-67 102,-125 153,-124 106,4 215,125 225,227 8,34 -24,86 -59,96 -109,34 -195,39 -307,39l-150 0 0 0c-21,0 -41,-20 -41,-41 0,-21 20,-40 40,-40zm99 0c40,-73 106,-181 181,-210 85,21 156,82 173,169l0 0c-25,9 -51,16 -77,21 -98,20 -181,20 -277,20z"/>
 </g>
</svg>
