<?xml version="1.0" encoding="UTF-8"?>
<!DOCTYPE svg PUBLIC "-//W3C//DTD SVG 1.0//EN" "http://www.w3.org/TR/2001/REC-SVG-20010904/DTD/svg10.dtd">
<!-- Creator: CorelDRAW -->
<svg xmlns="http://www.w3.org/2000/svg" xml:space="preserve" width="1300px" height="1300px" version="1.0" style="shape-rendering:geometricPrecision; text-rendering:geometricPrecision; image-rendering:optimizeQuality; fill-rule:evenodd; clip-rule:evenodd"
viewBox="0 0 1300 1056"
 xmlns:xlink="http://www.w3.org/1999/xlink">
 <defs>
  <style type="text/css">
   <![CDATA[
    .fil0 {fill:#CC9933;fill-opacity:0.501961}
   ]]>
  </style>
 </defs>
 <g id="_100:master">
  <metadata id="CorelCorpID_0Corel-Layer"/>
  <path class="fil0" d="M556 569c96,0 179,0 277,-20 26,-5 52,-12 77,-21l0 0c-17,-87 -88,-148 -173,-169 -75,29 -141,137 -181,210zm418 -54c8,34 -24,86 -59,96 -109,34 -195,39 -307,39l-242 0 0 -81 139 0 0 -1 0 0c7,-13 13,-26 20,-39 10,-20 13,-40 16,-68 5,-55 5,-126 5,-195l0 -267 67 0 0 267c0,50 -6,100 -17,146 46,-67 102,-125 153,-124 106,4 215,125 225,227zm-469 54l1 0 -1 -1 0 1z"/>
 </g>
</svg>
