<?xml version="1.0" encoding="UTF-8"?>
<!DOCTYPE svg PUBLIC "-//W3C//DTD SVG 1.0//EN" "http://www.w3.org/TR/2001/REC-SVG-20010904/DTD/svg10.dtd">
<!-- Creator: CorelDRAW -->
<svg xmlns="http://www.w3.org/2000/svg" xml:space="preserve" width="1300px" height="1300px" version="1.0" style="shape-rendering:geometricPrecision; text-rendering:geometricPrecision; image-rendering:optimizeQuality; fill-rule:evenodd; clip-rule:evenodd"
viewBox="0 0 1300 1056"
 xmlns:xlink="http://www.w3.org/1999/xlink">
 <defs>
  <style type="text/css">
   <![CDATA[
    .fil0 {fill:black}
   ]]>
  </style>
 </defs>
 <g id="_100:master">
  <metadata id="CorelCorpID_0Corel-Layer"/>
  <path class="fil0" d="M798 328c160,-1 231,284 129,412 -42,52 -146,122 -208,122 -31,0 -114,-39 -144,-53l16 -34c77,35 118,33 193,-9 42,-24 105,-71 121,-119 -81,6 -225,25 -249,-67 -28,-113 50,-252 142,-252zm111 242c-11,-163 -139,-225 -190,-95 -10,26 -11,78 7,90 18,11 154,6 183,5z"/>
 </g>
</svg>
