<?xml version="1.0" encoding="UTF-8"?>
<!DOCTYPE svg PUBLIC "-//W3C//DTD SVG 1.0//EN" "http://www.w3.org/TR/2001/REC-SVG-20010904/DTD/svg10.dtd">
<!-- Creator: CorelDRAW -->
<svg xmlns="http://www.w3.org/2000/svg" xml:space="preserve" width="1300px" height="1300px" version="1.0" style="shape-rendering:geometricPrecision; text-rendering:geometricPrecision; image-rendering:optimizeQuality; fill-rule:evenodd; clip-rule:evenodd"
viewBox="0 0 1300 1056"
 xmlns:xlink="http://www.w3.org/1999/xlink">
 <defs>
  <style type="text/css">
   <![CDATA[
    .fil0 {fill:black}
   ]]>
  </style>
 </defs>
 <g id="_100:master">
  <metadata id="CorelCorpID_0Corel-Layer"/>
  <path class="fil0" d="M1035 569l0 81 -67 0c-20,84 -73,134 -148,176 -104,58 -129,33 -244,-19l16 -33c77,35 118,33 193,-10 42,-24 104,-71 121,-119 -82,6 -226,25 -249,-67 -23,-91 35,-252 142,-252 118,0 172,145 176,243l60 0zm-125 -1c-4,-56 -38,-166 -111,-166 -60,0 -115,118 -73,161 18,12 155,7 184,5z"/>
 </g>
</svg>
