<?xml version="1.0" encoding="UTF-8"?>
<!DOCTYPE svg PUBLIC "-//W3C//DTD SVG 1.0//EN" "http://www.w3.org/TR/2001/REC-SVG-20010904/DTD/svg10.dtd">
<!-- Creator: CorelDRAW -->
<svg xmlns="http://www.w3.org/2000/svg" xml:space="preserve" width="1300px" height="1300px" version="1.0" style="shape-rendering:geometricPrecision; text-rendering:geometricPrecision; image-rendering:optimizeQuality; fill-rule:evenodd; clip-rule:evenodd"
viewBox="0 0 1300 1056"
 xmlns:xlink="http://www.w3.org/1999/xlink">
 <defs>
  <style type="text/css">
   <![CDATA[
    .fil0 {fill:black}
   ]]>
  </style>
 </defs>
 <g id="_100:master">
  <metadata id="CorelCorpID_0Corel-Layer"/>
  <path class="fil0" d="M971 654c-22,139 -308,252 -441,123 -114,-111 -21,-321 30,-448l47 18c-33,84 -95,243 -62,324 49,119 262,103 367,-14 -147,-75 -279,-32 -176,-235 68,-133 136,-145 260,-67l-26 43c-78,-46 -123,-42 -173,44 -23,40 -47,80 -9,93 35,13 134,43 157,60 20,15 30,34 26,59z"/>
 </g>
</svg>
