<?xml version="1.0" encoding="UTF-8"?>
<!DOCTYPE svg PUBLIC "-//W3C//DTD SVG 1.0//EN" "http://www.w3.org/TR/2001/REC-SVG-20010904/DTD/svg10.dtd">
<!-- Creator: CorelDRAW -->
<svg xmlns="http://www.w3.org/2000/svg" xml:space="preserve" width="1300px" height="1300px" version="1.0" style="shape-rendering:geometricPrecision; text-rendering:geometricPrecision; image-rendering:optimizeQuality; fill-rule:evenodd; clip-rule:evenodd"
viewBox="0 0 1300 1056"
 xmlns:xlink="http://www.w3.org/1999/xlink">
 <defs>
  <style type="text/css">
   <![CDATA[
    .fil0 {fill:black}
   ]]>
  </style>
 </defs>
 <g id="_300:master">
  <metadata id="CorelCorpID_0Corel-Layer"/>
  <path class="fil0" d="M940 40l13 66c3,19 6,38 8,56 2,18 4,37 6,57 1,19 2,40 3,62 1,22 2,47 2,73 0,27 1,56 1,89 0,32 0,68 0,109l0 98 -67 0 0 -98c0,-56 0,-105 -1,-147 0,-43 -1,-81 -2,-114 -1,-34 -3,-64 -6,-92 -3,-28 -7,-55 -11,-81l-12 -67 66 -11z"/>
 </g>
</svg>
