<?xml version="1.0" encoding="UTF-8"?>
<!DOCTYPE svg PUBLIC "-//W3C//DTD SVG 1.0//EN" "http://www.w3.org/TR/2001/REC-SVG-20010904/DTD/svg10.dtd">
<!-- Creator: CorelDRAW -->
<svg xmlns="http://www.w3.org/2000/svg" xml:space="preserve" width="1300px" height="1300px" version="1.0" style="shape-rendering:geometricPrecision; text-rendering:geometricPrecision; image-rendering:optimizeQuality; fill-rule:evenodd; clip-rule:evenodd"
viewBox="0 0 1300 1056"
 xmlns:xlink="http://www.w3.org/1999/xlink">
 <defs>
  <style type="text/css">
   <![CDATA[
    .fil0 {fill:#99CC66}
   ]]>
  </style>
 </defs>
 <g id="_100:master">
  <metadata id="CorelCorpID_0Corel-Layer"/>
  <path class="fil0" d="M670 569l0 -1c84,0 198,2 240,-84 21,-43 29,-89 39,-137l63 12 -22 103c-3,19 -8,35 -14,50 21,47 52,57 103,57l0 81c-61,0 -109,-15 -145,-67l1 -2c-59,62 -151,69 -264,69l0 0c-20,0 -41,-20 -41,-41 1,-20 20,-40 40,-40z"/>
 </g>
</svg>
