<?xml version="1.0" encoding="UTF-8"?>
<!DOCTYPE svg PUBLIC "-//W3C//DTD SVG 1.0//EN" "http://www.w3.org/TR/2001/REC-SVG-20010904/DTD/svg10.dtd">
<!-- Creator: CorelDRAW -->
<svg xmlns="http://www.w3.org/2000/svg" xml:space="preserve" width="1300px" height="1300px" version="1.0" style="shape-rendering:geometricPrecision; text-rendering:geometricPrecision; image-rendering:optimizeQuality; fill-rule:evenodd; clip-rule:evenodd"
viewBox="0 0 1300 1056"
 xmlns:xlink="http://www.w3.org/1999/xlink">
 <defs>
  <style type="text/css">
   <![CDATA[
    .fil0 {fill:black}
   ]]>
  </style>
 </defs>
 <g id="_100:master">
  <metadata id="CorelCorpID_0Corel-Layer"/>
  <path class="fil0" d="M1095 569l0 81c-61,0 -108,-15 -145,-67 -46,49 -121,64 -189,73 -32,5 -71,7 -115,7 -98,0 -206,-24 -249,-115 -29,-61 -18,-124 6,-183 8,-22 22,-50 32,-67l43 25c-20,37 -39,91 -39,134 0,104 141,124 223,124 62,0 177,-8 227,-45 22,-17 36,-42 46,-71 13,-37 20,-77 28,-118l64 12c-7,34 -13,70 -21,102 -4,18 -9,34 -14,50 5,12 11,22 18,30 23,27 53,27 85,28z"/>
 </g>
</svg>
