<?xml version="1.0" encoding="UTF-8"?>
<!DOCTYPE svg PUBLIC "-//W3C//DTD SVG 1.0//EN" "http://www.w3.org/TR/2001/REC-SVG-20010904/DTD/svg10.dtd">
<!-- Creator: CorelDRAW -->
<svg xmlns="http://www.w3.org/2000/svg" xml:space="preserve" width="1300px" height="1300px" version="1.0" style="shape-rendering:geometricPrecision; text-rendering:geometricPrecision; image-rendering:optimizeQuality; fill-rule:evenodd; clip-rule:evenodd"
viewBox="0 0 1300 1056"
 xmlns:xlink="http://www.w3.org/1999/xlink">
 <defs>
  <style type="text/css">
   <![CDATA[
    .fil0 {fill:#996633;fill-opacity:0.501961}
   ]]>
  </style>
 </defs>
 <g id="_100:master">
  <metadata id="CorelCorpID_0Corel-Layer"/>
  <path class="fil0" d="M697 561c76,-7 171,-34 245,-55l21 79c-195,51 -249,65 -454,65l0 0 -1 0 0 0c-20,-1 -40,-20 -40,-41 1,-20 20,-39 40,-40l0 0 1 0 0 0 100 -2c-42,-70 -49,-152 -5,-217 72,-106 205,-67 286,-12l-29 61c-65,-25 -144,-51 -208,-6 -29,54 12,125 44,168z"/>
 </g>
</svg>
