<?xml version="1.0" encoding="UTF-8"?>
<!DOCTYPE svg PUBLIC "-//W3C//DTD SVG 1.0//EN" "http://www.w3.org/TR/2001/REC-SVG-20010904/DTD/svg10.dtd">
<!-- Creator: CorelDRAW -->
<svg xmlns="http://www.w3.org/2000/svg" xml:space="preserve" width="1300px" height="1300px" version="1.0" style="shape-rendering:geometricPrecision; text-rendering:geometricPrecision; image-rendering:optimizeQuality; fill-rule:evenodd; clip-rule:evenodd"
viewBox="0 0 1300 1056"
 xmlns:xlink="http://www.w3.org/1999/xlink">
 <defs>
  <style type="text/css">
   <![CDATA[
    .fil0 {fill:#CC3399;fill-opacity:0.501961}
   ]]>
  </style>
 </defs>
 <g id="_100:master">
  <metadata id="CorelCorpID_0Corel-Layer"/>
  <path class="fil0" d="M1017 521l0 0 -3 20c-1,5 -3,10 -5,14 -24,57 -78,68 -132,79 -91,20 -190,16 -285,16l0 0c-21,0 -41,-20 -41,-41 0,-21 20,-40 40,-40l0 0 41 0 0 0 320 -40c1,-17 1,-34 1,-50 -58,11 -212,36 -241,-41 -43,-115 41,-249 123,-249 165,0 194,232 182,332zm-70 -110c-18,-141 -134,-202 -180,-84 -11,29 -6,77 11,86 15,9 147,1 169,-2z"/>
 </g>
</svg>
