<?xml version="1.0" encoding="UTF-8"?>
<!DOCTYPE svg PUBLIC "-//W3C//DTD SVG 1.0//EN" "http://www.w3.org/TR/2001/REC-SVG-20010904/DTD/svg10.dtd">
<!-- Creator: CorelDRAW -->
<svg xmlns="http://www.w3.org/2000/svg" xml:space="preserve" width="1300px" height="1300px" version="1.0" style="shape-rendering:geometricPrecision; text-rendering:geometricPrecision; image-rendering:optimizeQuality; fill-rule:evenodd; clip-rule:evenodd"
viewBox="0 0 1300 1056"
 xmlns:xlink="http://www.w3.org/1999/xlink">
 <defs>
  <style type="text/css">
   <![CDATA[
    .fil0 {fill:#CCCC33}
   ]]>
  </style>
 </defs>
 <g id="_100:master">
  <metadata id="CorelCorpID_0Corel-Layer"/>
  <path class="fil0" d="M499 569c36,0 82,-2 128,-9 -30,-32 -45,-69 -44,-106 3,-104 89,-210 157,-210 92,0 167,153 149,232 -9,37 -30,66 -60,89 21,3 42,4 65,4l56 0 0 81 -56 0c-70,0 -129,-11 -176,-30 -75,23 -160,30 -219,30 -21,0 -41,-20 -41,-41 0,-21 20,-40 41,-40zm223 -31c48,-17 88,-42 106,-80 -8,-54 -42,-111 -93,-133 -63,35 -91,91 -88,129 2,35 30,64 75,84z"/>
 </g>
</svg>
