<?xml version="1.0" encoding="UTF-8"?>
<!DOCTYPE svg PUBLIC "-//W3C//DTD SVG 1.0//EN" "http://www.w3.org/TR/2001/REC-SVG-20010904/DTD/svg10.dtd">
<!-- Creator: CorelDRAW -->
<svg xmlns="http://www.w3.org/2000/svg" xml:space="preserve" width="1300px" height="1300px" version="1.0" style="shape-rendering:geometricPrecision; text-rendering:geometricPrecision; image-rendering:optimizeQuality; fill-rule:evenodd; clip-rule:evenodd"
viewBox="0 0 1300 1056"
 xmlns:xlink="http://www.w3.org/1999/xlink">
 <defs>
  <style type="text/css">
   <![CDATA[
    .fil0 {fill:black;fill-opacity:0.501961}
   ]]>
  </style>
 </defs>
 <g id="_100:master">
  <metadata id="CorelCorpID_0Corel-Layer"/>
  <path class="fil0" d="M1061 569l1 81 -77 0c-27,0 -53,-2 -77,-6 -23,-4 -45,-10 -66,-19 -21,8 -44,14 -67,19 -154,34 -448,46 -448,-173 0,-61 27,-121 54,-171l44 24c-132,240 89,274 280,253 14,-2 29,-4 44,-7 -138,-135 23,-318 122,-318 74,0 142,106 142,202 0,42 -31,87 -65,114 38,0 76,1 113,1zm-206 -242c-66,24 -137,112 -77,175 15,16 35,30 62,41 21,-9 41,-20 59,-33 19,-13 36,-29 50,-48 -6,-55 -41,-113 -94,-135z"/>
 </g>
</svg>
