<?xml version="1.0" encoding="UTF-8"?>
<!DOCTYPE svg PUBLIC "-//W3C//DTD SVG 1.0//EN" "http://www.w3.org/TR/2001/REC-SVG-20010904/DTD/svg10.dtd">
<!-- Creator: CorelDRAW -->
<svg xmlns="http://www.w3.org/2000/svg" xml:space="preserve" width="1300px" height="1300px" version="1.0" style="shape-rendering:geometricPrecision; text-rendering:geometricPrecision; image-rendering:optimizeQuality; fill-rule:evenodd; clip-rule:evenodd"
viewBox="0 0 1300 1056"
 xmlns:xlink="http://www.w3.org/1999/xlink">
 <defs>
  <style type="text/css">
   <![CDATA[
    .fil0 {fill:black}
   ]]>
  </style>
 </defs>
 <g id="_200:master">
  <metadata id="CorelCorpID_0Corel-Layer"/>
  <path class="fil0" d="M949 902l9 73 -36 4c-28,3 -58,6 -88,10 -30,2 -61,4 -91,5 -30,0 -60,-2 -88,-6 -29,-4 -56,-11 -81,-22 -11,-5 -22,-11 -32,-20 -10,-8 -19,-18 -27,-28 -9,-11 -15,-22 -20,-34 -5,-12 -8,-23 -9,-34 -4,-39 -2,-76 4,-110 7,-33 17,-65 31,-93 14,-29 31,-55 52,-78 20,-24 42,-45 67,-63 24,-18 50,-33 76,-46 27,-13 54,-23 81,-30 -20,-10 -38,-20 -54,-30 -16,-9 -31,-18 -44,-25 -13,-8 -24,-14 -35,-19 -10,-4 -19,-6 -27,-6 -6,0 -13,1 -20,6 -7,4 -14,9 -21,16 -7,6 -14,14 -21,23 -6,8 -12,18 -18,27l-18 32 -44 -25 19 -32c7,-13 16,-27 26,-42 9,-15 20,-29 31,-41 12,-13 23,-23 36,-31 12,-9 25,-13 37,-13 9,0 20,3 34,9 13,7 28,14 45,24 17,9 35,20 55,32 20,12 40,23 62,35 21,11 43,21 66,31 23,9 46,16 68,21l-15 66c-28,-7 -58,-8 -91,-5 -33,4 -66,12 -98,24 -33,12 -64,29 -94,50 -29,22 -54,47 -76,77 -21,29 -37,63 -47,101 -10,37 -12,79 -6,124 20,22 44,38 71,47 27,9 56,15 88,16 31,2 65,1 100,-3 35,-4 71,-8 107,-12l36 -5z"/>
 </g>
</svg>
