<?xml version="1.0" encoding="UTF-8"?>
<!DOCTYPE svg PUBLIC "-//W3C//DTD SVG 1.0//EN" "http://www.w3.org/TR/2001/REC-SVG-20010904/DTD/svg10.dtd">
<!-- Creator: CorelDRAW -->
<svg xmlns="http://www.w3.org/2000/svg" xml:space="preserve" width="1300px" height="1300px" version="1.0" style="shape-rendering:geometricPrecision; text-rendering:geometricPrecision; image-rendering:optimizeQuality; fill-rule:evenodd; clip-rule:evenodd"
viewBox="0 0 1300 1056"
 xmlns:xlink="http://www.w3.org/1999/xlink">
 <defs>
  <style type="text/css">
   <![CDATA[
    .fil0 {fill:#CC9933;fill-opacity:0.501961}
   ]]>
  </style>
 </defs>
 <g id="_100:master">
  <metadata id="CorelCorpID_0Corel-Layer"/>
  <path class="fil0" d="M968 421l8 1 -16 66c-8,-1 -16,-2 -24,-4 -27,-2 -49,3 -71,12 0,81 36,73 142,73l0 81c-123,0 -187,9 -193,-130 -89,52 -167,130 -281,130l-91 0 0 0c-20,0 -41,-20 -41,-41 1,-21 21,-40 41,-40l0 0 70 0c141,0 208,-77 309,-127 -82,-40 -154,-92 -183,-92 -42,0 -81,74 -99,104l-43 -25c27,-48 86,-159 149,-159 51,0 188,118 323,151z"/>
 </g>
</svg>
