<?xml version="1.0" encoding="UTF-8"?>
<!DOCTYPE svg PUBLIC "-//W3C//DTD SVG 1.0//EN" "http://www.w3.org/TR/2001/REC-SVG-20010904/DTD/svg10.dtd">
<!-- Creator: CorelDRAW -->
<svg xmlns="http://www.w3.org/2000/svg" xml:space="preserve" width="1300px" height="1300px" version="1.0" style="shape-rendering:geometricPrecision; text-rendering:geometricPrecision; image-rendering:optimizeQuality; fill-rule:evenodd; clip-rule:evenodd"
viewBox="0 0 1300 1056"
 xmlns:xlink="http://www.w3.org/1999/xlink">
 <defs>
  <style type="text/css">
   <![CDATA[
    .fil0 {fill:black}
   ]]>
  </style>
 </defs>
 <g id="_100:master">
  <metadata id="CorelCorpID_0Corel-Layer"/>
  <path class="fil0" d="M950 902l9 73 -37 4c-28,4 -58,7 -88,10 -30,3 -61,5 -91,5 -30,0 -59,-2 -88,-6 -29,-4 -56,-11 -81,-22 -11,-4 -22,-11 -32,-19 -10,-9 -19,-18 -27,-29 -8,-10 -15,-22 -20,-33 -5,-12 -8,-24 -9,-35 -3,-39 -2,-75 4,-109 7,-34 17,-65 31,-94 14,-29 31,-55 52,-78 20,-24 42,-44 67,-62 24,-18 50,-34 76,-47 27,-13 54,-23 81,-30 -20,-10 -38,-20 -54,-29 -16,-10 -30,-18 -43,-26 -14,-8 -25,-14 -35,-18 -11,-5 -20,-7 -27,-7 -7,0 -14,2 -21,6 -7,4 -14,9 -21,16 -7,6 -14,14 -21,23 -6,9 -12,18 -17,27l-19 32 -44 -25 19 -32c7,-13 16,-27 26,-42 10,-15 20,-28 31,-41 12,-12 24,-23 36,-31 12,-8 25,-13 37,-13 9,0 20,4 34,10 13,6 28,14 45,23 17,10 35,21 55,32 20,12 40,24 62,35 21,11 44,22 66,31 23,9 46,17 68,22l-14 65c-15,-3 -31,-5 -47,-5 -16,-1 -33,0 -50,2 0,16 1,30 3,41 1,11 5,20 11,26 6,7 16,11 28,14 13,2 30,3 52,3l48 0c8,0 13,4 16,12 3,8 4,18 4,29 0,11 -1,21 -4,29 -3,7 -8,11 -16,11l-68 0c-29,0 -51,-4 -68,-11 -17,-8 -29,-19 -37,-33 -9,-14 -14,-30 -16,-49 -2,-19 -3,-40 -3,-63 -25,6 -49,15 -72,26 -24,11 -47,25 -68,41 -21,16 -40,34 -58,54 -17,21 -32,44 -43,69 -12,25 -20,52 -25,81 -5,29 -5,61 0,95 20,21 44,37 71,46 27,10 56,15 88,17 31,1 65,0 100,-4 35,-4 71,-8 107,-12l37 -5z"/>
 </g>
</svg>
