<?xml version="1.0" encoding="UTF-8"?>
<!DOCTYPE svg PUBLIC "-//W3C//DTD SVG 1.0//EN" "http://www.w3.org/TR/2001/REC-SVG-20010904/DTD/svg10.dtd">
<!-- Creator: CorelDRAW -->
<svg xmlns="http://www.w3.org/2000/svg" xml:space="preserve" width="1300px" height="1300px" version="1.0" style="shape-rendering:geometricPrecision; text-rendering:geometricPrecision; image-rendering:optimizeQuality; fill-rule:evenodd; clip-rule:evenodd"
viewBox="0 0 1300 1056"
 xmlns:xlink="http://www.w3.org/1999/xlink">
 <defs>
  <style type="text/css">
   <![CDATA[
    .fil0 {fill:black;fill-opacity:0.501961}
   ]]>
  </style>
 </defs>
 <g id="_100:master">
  <metadata id="CorelCorpID_0Corel-Layer"/>
  <path class="fil0" d="M912 569l0 81c-123,0 -187,9 -193,-130 -89,52 -167,130 -281,130l-91 0 0 0c-21,0 -41,-20 -41,-41 0,-21 20,-40 41,-40l0 0 70 0c142,0 209,-79 311,-128 -183,-82 -181,-163 -284,12l-44 -25c28,-48 87,-159 150,-159 52,0 196,123 331,153l-15 65c-34,-7 -64,-3 -96,9 0,81 35,73 142,73z"/>
 </g>
</svg>
