<?xml version="1.0" encoding="UTF-8"?>
<!DOCTYPE svg PUBLIC "-//W3C//DTD SVG 1.0//EN" "http://www.w3.org/TR/2001/REC-SVG-20010904/DTD/svg10.dtd">
<!-- Creator: CorelDRAW -->
<svg xmlns="http://www.w3.org/2000/svg" xml:space="preserve" width="1300px" height="1300px" version="1.0" style="shape-rendering:geometricPrecision; text-rendering:geometricPrecision; image-rendering:optimizeQuality; fill-rule:evenodd; clip-rule:evenodd"
viewBox="0 0 1300 1056"
 xmlns:xlink="http://www.w3.org/1999/xlink">
 <defs>
  <style type="text/css">
   <![CDATA[
    .fil0 {fill:#333300;fill-opacity:0.501961}
   ]]>
  </style>
 </defs>
 <g id="_100:master">
  <metadata id="CorelCorpID_0Corel-Layer"/>
  <path class="fil0" d="M1005 569l0 81c-149,0 -189,1 -192,-155 -115,30 -226,115 -260,240 -10,37 -12,79 -6,124 20,22 44,38 71,47 93,33 229,10 331,-4l9 73c-205,23 -526,77 -468,-235 24,-128 111,-225 226,-280 25,-12 53,-22 82,-30 -73,-38 -134,-80 -160,-80 -42,0 -81,74 -99,104l-43 -25c27,-48 86,-159 149,-159 52,0 193,122 330,152l-15 66 0 0 -1 0 -1 0c-6,-1 -12,-2 -17,-3 -25,-3 -51,-3 -78,1 -1,81 23,83 142,83z"/>
 </g>
</svg>
