<?xml version="1.0" encoding="UTF-8"?>
<!DOCTYPE svg PUBLIC "-//W3C//DTD SVG 1.0//EN" "http://www.w3.org/TR/2001/REC-SVG-20010904/DTD/svg10.dtd">
<!-- Creator: CorelDRAW -->
<svg xmlns="http://www.w3.org/2000/svg" xml:space="preserve" width="1300px" height="1300px" version="1.0" style="shape-rendering:geometricPrecision; text-rendering:geometricPrecision; image-rendering:optimizeQuality; fill-rule:evenodd; clip-rule:evenodd"
viewBox="0 0 1300 1056"
 xmlns:xlink="http://www.w3.org/1999/xlink">
 <defs>
  <style type="text/css">
   <![CDATA[
    .fil0 {fill:#66FFCC}
   ]]>
  </style>
 </defs>
 <g id="_100:master">
  <metadata id="CorelCorpID_0Corel-Layer"/>
  <path class="fil0" d="M664 569l0 0 66 0c87,-1 156,-19 185,-37 -7,-79 -83,-207 -233,-282l13 -93c110,-80 193,-103 317,-145l17 65c-98,25 -199,66 -285,120 133,63 231,232 231,302l1 1c-1,120 -133,150 -250,150l-62 0 0 0 0 0c-20,0 -41,-20 -41,-41 1,-21 21,-40 41,-40z"/>
 </g>
</svg>
