<?xml version="1.0" encoding="UTF-8"?>
<!DOCTYPE svg PUBLIC "-//W3C//DTD SVG 1.0//EN" "http://www.w3.org/TR/2001/REC-SVG-20010904/DTD/svg10.dtd">
<!-- Creator: CorelDRAW -->
<svg xmlns="http://www.w3.org/2000/svg" xml:space="preserve" width="1300px" height="1300px" version="1.0" style="shape-rendering:geometricPrecision; text-rendering:geometricPrecision; image-rendering:optimizeQuality; fill-rule:evenodd; clip-rule:evenodd"
viewBox="0 0 1300 1056"
 xmlns:xlink="http://www.w3.org/1999/xlink">
 <defs>
  <style type="text/css">
   <![CDATA[
    .fil0 {fill:#66FFCC}
   ]]>
  </style>
 </defs>
 <g id="_100:master">
  <metadata id="CorelCorpID_0Corel-Layer"/>
  <path class="fil0" d="M664 569c-20,0 -40,19 -41,40 0,21 21,41 41,41l0 0 0 0 62 0c117,0 249,-30 250,-150l-51 23c-19,22 -95,45 -195,46l-66 0 0 0zm311 -70l-50 24c-7,-79 -93,-198 -243,-273l13 -93c110,-80 193,-103 317,-145l17 65c-98,25 -199,66 -285,120 133,79 231,209 231,302z"/>
 </g>
</svg>
