<?xml version="1.0" encoding="UTF-8"?>
<!DOCTYPE svg PUBLIC "-//W3C//DTD SVG 1.0//EN" "http://www.w3.org/TR/2001/REC-SVG-20010904/DTD/svg10.dtd">
<!-- Creator: CorelDRAW -->
<svg xmlns="http://www.w3.org/2000/svg" xml:space="preserve" width="1300px" height="1300px" version="1.0" style="shape-rendering:geometricPrecision; text-rendering:geometricPrecision; image-rendering:optimizeQuality; fill-rule:evenodd; clip-rule:evenodd"
viewBox="0 0 1300 1056"
 xmlns:xlink="http://www.w3.org/1999/xlink">
 <defs>
  <style type="text/css">
   <![CDATA[
    .fil0 {fill:gray;fill-opacity:0.501961}
   ]]>
  </style>
 </defs>
 <g id="_100:master">
  <metadata id="CorelCorpID_0Corel-Layer"/>
  <path class="fil0" d="M695 289l13 -84c109,-83 251,-123 317,-146l16 66c-98,24 -202,67 -287,121 142,76 226,272 252,298 23,24 45,25 77,25l0 81c-72,0 -117,-13 -153,-94 -2,-3 -3,-7 -5,-11l-16 39c-24,18 -51,33 -79,43 -134,50 -469,79 -502,-121 -12,-70 16,-148 51,-207l44 25c-116,211 35,263 234,256 82,-3 174,-25 245,-74l1 -1c-50,-86 -126,-169 -208,-216z"/>
 </g>
</svg>
