<?xml version="1.0" encoding="UTF-8"?>
<!DOCTYPE svg PUBLIC "-//W3C//DTD SVG 1.0//EN" "http://www.w3.org/TR/2001/REC-SVG-20010904/DTD/svg10.dtd">
<!-- Creator: CorelDRAW -->
<svg xmlns="http://www.w3.org/2000/svg" xml:space="preserve" width="1300px" height="1300px" version="1.0" style="shape-rendering:geometricPrecision; text-rendering:geometricPrecision; image-rendering:optimizeQuality; fill-rule:evenodd; clip-rule:evenodd"
viewBox="0 0 1300 1056"
 xmlns:xlink="http://www.w3.org/1999/xlink">
 <defs>
  <style type="text/css">
   <![CDATA[
    .fil0 {fill:black}
   ]]>
  </style>
 </defs>
 <g id="_100:master">
  <metadata id="CorelCorpID_0Corel-Layer"/>
  <g>
   <path class="fil0" d="M716 651c-9,0 -18,-1 -26,-5 -8,-3 -15,-8 -21,-15 -6,-6 -10,-13 -14,-22 -3,-8 -5,-17 -5,-26 0,-10 2,-19 5,-27 4,-8 8,-16 14,-22 6,-6 13,-11 21,-14 8,-4 17,-6 26,-6 9,0 18,2 26,6 8,3 15,8 21,14 6,6 11,14 14,22 4,8 6,17 6,27 0,9 -2,18 -6,26 -3,9 -8,16 -14,22 -6,7 -13,12 -21,15 -8,4 -17,5 -26,5l0 0zm-1 -37c8,0 15,-3 21,-9 6,-6 9,-13 9,-21 0,-8 -3,-16 -9,-22 -6,-6 -13,-9 -21,-9 -8,0 -15,3 -21,9 -6,6 -9,14 -9,22 0,8 3,15 9,21 6,6 13,9 21,9z"/>
  </g>
 </g>
</svg>
