<?xml version="1.0" encoding="UTF-8"?>
<!DOCTYPE svg PUBLIC "-//W3C//DTD SVG 1.0//EN" "http://www.w3.org/TR/2001/REC-SVG-20010904/DTD/svg10.dtd">
<!-- Creator: CorelDRAW -->
<svg xmlns="http://www.w3.org/2000/svg" xml:space="preserve" width="1300px" height="1300px" version="1.0" style="shape-rendering:geometricPrecision; text-rendering:geometricPrecision; image-rendering:optimizeQuality; fill-rule:evenodd; clip-rule:evenodd"
viewBox="0 0 1300 1056"
 xmlns:xlink="http://www.w3.org/1999/xlink">
 <defs>
  <style type="text/css">
   <![CDATA[
    .fil0 {fill:black}
   ]]>
  </style>
 </defs>
 <g id="_100:master">
  <metadata id="CorelCorpID_0Corel-Layer"/>
  <path class="fil0" d="M884 609c-31,3 -60,4 -88,2 -27,-1 -53,-6 -76,-14 -4,7 -8,16 -12,24 -4,9 -9,19 -14,29l-44 -21 26 -54c4,-9 8,-16 13,-21 6,-6 11,-10 15,-12 7,-3 13,-4 18,-4 5,0 10,0 15,2 15,4 35,8 59,10 24,2 52,2 83,-1l31 -3 5 60 -31 3z"/>
 </g>
</svg>
