<?xml version="1.0" encoding="UTF-8"?>
<!DOCTYPE svg PUBLIC "-//W3C//DTD SVG 1.0//EN" "http://www.w3.org/TR/2001/REC-SVG-20010904/DTD/svg10.dtd">
<!-- Creator: CorelDRAW -->
<svg xmlns="http://www.w3.org/2000/svg" xml:space="preserve" width="1300px" height="1300px" version="1.0" style="shape-rendering:geometricPrecision; text-rendering:geometricPrecision; image-rendering:optimizeQuality; fill-rule:evenodd; clip-rule:evenodd"
viewBox="0 0 1300 1056"
 xmlns:xlink="http://www.w3.org/1999/xlink">
 <defs>
  <style type="text/css">
   <![CDATA[
    .fil0 {fill:black}
   ]]>
  </style>
 </defs>
 <g id="_100:master">
  <metadata id="CorelCorpID_0Corel-Layer"/>
  <path class="fil0" d="M649 527c23,-15 68,-44 85,6 3,11 3,25 0,44l-33 19c15,-52 3,-58 -33,-36l-19 -33zm179 -111c67,3 100,118 -8,168l-137 64 -19 -40c34,-16 156,-67 173,-88 24,-30 -2,-73 -36,-49 -32,23 17,69 32,84l-34 22c-31,-34 -58,-66 -38,-115 11,-28 36,-46 67,-46z"/>
 </g>
</svg>
