<?xml version="1.0" encoding="UTF-8"?>
<!DOCTYPE svg PUBLIC "-//W3C//DTD SVG 1.0//EN" "http://www.w3.org/TR/2001/REC-SVG-20010904/DTD/svg10.dtd">
<!-- Creator: CorelDRAW -->
<svg xmlns="http://www.w3.org/2000/svg" xml:space="preserve" width="1300px" height="1300px" version="1.0" style="shape-rendering:geometricPrecision; text-rendering:geometricPrecision; image-rendering:optimizeQuality; fill-rule:evenodd; clip-rule:evenodd"
viewBox="0 0 1300 1056"
 xmlns:xlink="http://www.w3.org/1999/xlink">
 <defs>
  <style type="text/css">
   <![CDATA[
    .fil0 {fill:black}
   ]]>
  </style>
 </defs>
 <g id="_100:master">
  <metadata id="CorelCorpID_0Corel-Layer"/>
  <path class="fil0" d="M815 418c10,1 18,3 26,7 7,4 13,9 19,16 5,7 9,14 12,22 3,8 4,17 5,25 0,22 -5,41 -18,57 -12,17 -29,30 -52,41l-138 64 -19 -40 144 -67c13,-6 23,-13 30,-21 6,-8 9,-17 9,-29 0,-7 -3,-13 -8,-19 -5,-5 -11,-8 -17,-8 -7,0 -14,2 -20,7 -7,4 -10,11 -10,20 0,5 1,10 2,14 2,5 4,10 8,14 3,5 7,10 13,16 5,5 11,12 18,19l-33 23c-4,-5 -8,-10 -12,-14 -4,-5 -9,-10 -13,-15 -11,-13 -17,-27 -19,-43 -2,-16 0,-30 5,-43 6,-14 14,-25 26,-33 12,-9 26,-13 42,-13z"/>
 </g>
</svg>
