<?xml version="1.0" encoding="UTF-8"?>
<!DOCTYPE svg PUBLIC "-//W3C//DTD SVG 1.0//EN" "http://www.w3.org/TR/2001/REC-SVG-20010904/DTD/svg10.dtd">
<!-- Creator: CorelDRAW -->
<svg xmlns="http://www.w3.org/2000/svg" xml:space="preserve" width="1300px" height="1300px" version="1.0" style="shape-rendering:geometricPrecision; text-rendering:geometricPrecision; image-rendering:optimizeQuality; fill-rule:evenodd; clip-rule:evenodd"
viewBox="0 0 1300 1056"
 xmlns:xlink="http://www.w3.org/1999/xlink">
 <defs>
  <style type="text/css">
   <![CDATA[
    .fil0 {fill:black}
   ]]>
  </style>
 </defs>
 <g id="_100:master">
  <metadata id="CorelCorpID_0Corel-Layer"/>
  <path class="fil0" d="M703 535c32,10 33,15 93,41 56,23 69,21 94,29 11,-23 13,-44 13,-71 0,-41 -23,-86 -58,-108 -68,-46 -121,57 -141,108l-1 1zm249 104c-3,8 -33,48 -71,44 -79,-6 -176,-75 -241,-85 -30,60 -11,218 -6,292l-64 4c-6,-84 -26,-278 25,-340 16,-20 26,-29 52,-32 20,-58 59,-130 110,-166 17,-12 35,-18 54,-18 72,0 126,57 149,122 17,49 18,132 -8,179z"/>
 </g>
</svg>
