<?xml version="1.0" encoding="UTF-8"?>
<!DOCTYPE svg PUBLIC "-//W3C//DTD SVG 1.0//EN" "http://www.w3.org/TR/2001/REC-SVG-20010904/DTD/svg10.dtd">
<!-- Creator: CorelDRAW -->
<svg xmlns="http://www.w3.org/2000/svg" xml:space="preserve" width="1300px" height="1300px" version="1.0" style="shape-rendering:geometricPrecision; text-rendering:geometricPrecision; image-rendering:optimizeQuality; fill-rule:evenodd; clip-rule:evenodd"
viewBox="0 0 1300 1056"
 xmlns:xlink="http://www.w3.org/1999/xlink">
 <defs>
  <style type="text/css">
   <![CDATA[
    .fil0 {fill:#CC3366;fill-opacity:0.501961}
   ]]>
  </style>
 </defs>
 <g id="_100:master">
  <metadata id="CorelCorpID_0Corel-Layer"/>
  <path class="fil0" d="M1042 569l0 81c-38,0 -68,-11 -94,-37 5,68 6,146 -50,202 -34,34 -167,74 -228,74 -38,0 -72,-6 -100,-17 -210,-83 -89,-348 -34,-489l47 19c-61,158 -163,406 103,406 53,0 130,-29 186,-57 26,-88 -12,-289 -32,-381l71 -13 21 117c5,28 31,95 110,95z"/>
 </g>
</svg>
