<?xml version="1.0" encoding="UTF-8"?>
<!DOCTYPE svg PUBLIC "-//W3C//DTD SVG 1.0//EN" "http://www.w3.org/TR/2001/REC-SVG-20010904/DTD/svg10.dtd">
<!-- Creator: CorelDRAW -->
<svg xmlns="http://www.w3.org/2000/svg" xml:space="preserve" width="1300px" height="1300px" version="1.0" style="shape-rendering:geometricPrecision; text-rendering:geometricPrecision; image-rendering:optimizeQuality; fill-rule:evenodd; clip-rule:evenodd"
viewBox="0 0 1300 1056"
 xmlns:xlink="http://www.w3.org/1999/xlink">
 <defs>
  <style type="text/css">
   <![CDATA[
    .fil0 {fill:black}
   ]]>
  </style>
 </defs>
 <g id="_100:master">
  <metadata id="CorelCorpID_0Corel-Layer"/>
  <g>
   <path class="fil0" d="M942 530c-8,8 -15,16 -22,24 -8,7 -15,14 -23,21 -12,11 -25,18 -39,24 -13,5 -28,7 -42,7 -14,0 -28,-2 -42,-8 -14,-5 -27,-13 -39,-23 -15,-13 -30,-28 -45,-45 -11,-12 -19,-25 -24,-39 -5,-14 -8,-28 -8,-43 0,-14 3,-28 8,-42 5,-14 13,-27 24,-39 15,-16 30,-31 45,-45 12,-10 25,-18 39,-23 14,-5 28,-8 42,-8 14,0 29,3 42,8 14,5 27,13 39,23 8,7 15,14 23,22 7,7 14,15 22,23 10,12 18,25 24,39 5,14 8,28 8,42 0,15 -3,29 -8,43 -6,14 -14,27 -24,39l0 0zm-53 -41c10,-12 15,-26 15,-41 0,-14 -5,-28 -15,-40 -11,-13 -22,-23 -32,-32 -13,-10 -26,-16 -41,-16 -15,0 -28,6 -40,16 -11,8 -22,19 -33,32 -11,12 -16,26 -16,41 0,15 5,28 16,40 11,13 22,24 33,32 12,11 25,16 40,16 15,0 28,-5 41,-16 10,-8 21,-19 32,-32z"/>
  </g>
 </g>
</svg>
