<?xml version="1.0" encoding="UTF-8"?>
<!DOCTYPE svg PUBLIC "-//W3C//DTD SVG 1.0//EN" "http://www.w3.org/TR/2001/REC-SVG-20010904/DTD/svg10.dtd">
<!-- Creator: CorelDRAW -->
<svg xmlns="http://www.w3.org/2000/svg" xml:space="preserve" width="1300px" height="1300px" version="1.0" style="shape-rendering:geometricPrecision; text-rendering:geometricPrecision; image-rendering:optimizeQuality; fill-rule:evenodd; clip-rule:evenodd"
viewBox="0 0 1300 1056"
 xmlns:xlink="http://www.w3.org/1999/xlink">
 <defs>
  <style type="text/css">
   <![CDATA[
    .fil0 {fill:black}
   ]]>
  </style>
 </defs>
 <g id="_100:master">
  <metadata id="CorelCorpID_0Corel-Layer"/>
  <path class="fil0" d="M1013 569l0 81 -49 0c1,26 -1,51 -2,76 -2,33 -37,93 -68,106 -68,27 -171,57 -244,57 -90,0 -171,-34 -205,-119 -21,-54 -17,-117 -1,-178 20,-78 44,-137 72,-208l47 18c-30,75 -45,117 -64,197 -19,88 -8,165 77,196 26,9 56,13 90,13 26,0 69,-8 99,-14 42,-10 89,-25 129,-45 4,-36 5,-70 3,-104 -48,4 -130,9 -178,0 -29,-5 -60,-15 -74,-43 -49,-92 23,-277 133,-277 121,0 168,144 181,244l54 0zm-308 -5c18,7 52,7 79,7l106 -2c-7,-55 -40,-163 -110,-163 -67,1 -118,115 -75,158z"/>
 </g>
</svg>
