<?xml version="1.0" encoding="UTF-8"?>
<!DOCTYPE svg PUBLIC "-//W3C//DTD SVG 1.0//EN" "http://www.w3.org/TR/2001/REC-SVG-20010904/DTD/svg10.dtd">
<!-- Creator: CorelDRAW -->
<svg xmlns="http://www.w3.org/2000/svg" xml:space="preserve" width="1300px" height="1300px" version="1.0" style="shape-rendering:geometricPrecision; text-rendering:geometricPrecision; image-rendering:optimizeQuality; fill-rule:evenodd; clip-rule:evenodd"
viewBox="0 0 1300 1056"
 xmlns:xlink="http://www.w3.org/1999/xlink">
 <defs>
  <style type="text/css">
   <![CDATA[
    .fil0 {fill:#336699;fill-opacity:0.501961}
   ]]>
  </style>
 </defs>
 <g id="_100:master">
  <metadata id="CorelCorpID_0Corel-Layer"/>
  <path class="fil0" d="M223 569l0 0c136,0 159,-99 182,-222l64 12c-7,57 -17,111 -34,155 4,11 16,24 31,34l-11 -93c3,18 9,36 18,54 8,17 22,32 40,44 41,-84 147,-268 236,-265 106,4 215,125 225,227 0,4 0,7 0,11 0,12 -4,25 -10,37 -10,23 -28,41 -48,48 -9,3 -19,6 -30,9 -92,27 -167,36 -264,38 -59,1 -113,-3 -149,-17 -31,-11 -58,-29 -79,-56l1 -1c-36,41 -89,66 -171,66l0 0c-21,0 -41,-20 -41,-41 0,-20 20,-40 40,-40zm687 -41c-17,-87 -88,-148 -173,-169 -75,30 -142,138 -182,212l1 0c16,4 34,6 52,6 3,0 7,0 11,0 98,-3 209,-26 291,-49z"/>
 </g>
</svg>
