<?xml version="1.0" encoding="UTF-8"?>
<!DOCTYPE svg PUBLIC "-//W3C//DTD SVG 1.0//EN" "http://www.w3.org/TR/2001/REC-SVG-20010904/DTD/svg10.dtd">
<!-- Creator: CorelDRAW -->
<svg xmlns="http://www.w3.org/2000/svg" xml:space="preserve" width="1300px" height="1300px" version="1.0" style="shape-rendering:geometricPrecision; text-rendering:geometricPrecision; image-rendering:optimizeQuality; fill-rule:evenodd; clip-rule:evenodd"
viewBox="0 0 1300 1056"
 xmlns:xlink="http://www.w3.org/1999/xlink">
 <defs>
  <style type="text/css">
   <![CDATA[
    .fil0 {fill:black}
   ]]>
  </style>
 </defs>
 <g id="_100:master">
  <metadata id="CorelCorpID_0Corel-Layer"/>
  <path class="fil0" d="M1089 569l-1 81c-56,0 -114,-11 -143,-52 -13,27 -60,68 -92,68 -40,0 -107,-52 -138,-78 -53,73 -161,98 -226,29 5,72 10,141 -41,198 -32,37 -168,74 -228,74 -38,-1 -72,-6 -101,-17 -206,-82 -92,-345 -33,-489l47 19c-34,84 -95,242 -62,324 37,90 155,92 243,68 32,-9 68,-23 108,-42 26,-88 -13,-289 -33,-381l64 -12c14,82 22,218 132,218 100,0 114,-140 132,-229l64 12 -34 156c20,22 92,82 123,66 59,-30 46,-65 44,-131l-2 -131 64 0 0 159c0,77 51,90 113,90z"/>
 </g>
</svg>
