<?xml version="1.0" encoding="UTF-8"?>
<!DOCTYPE svg PUBLIC "-//W3C//DTD SVG 1.0//EN" "http://www.w3.org/TR/2001/REC-SVG-20010904/DTD/svg10.dtd">
<!-- Creator: CorelDRAW -->
<svg xmlns="http://www.w3.org/2000/svg" xml:space="preserve" width="1300px" height="1300px" version="1.0" style="shape-rendering:geometricPrecision; text-rendering:geometricPrecision; image-rendering:optimizeQuality; fill-rule:evenodd; clip-rule:evenodd"
viewBox="0 0 1300 1056"
 xmlns:xlink="http://www.w3.org/1999/xlink">
 <defs>
  <style type="text/css">
   <![CDATA[
    .fil0 {fill:#FFFF66;fill-opacity:0.501961}
   ]]>
  </style>
 </defs>
 <g id="_100:master">
  <metadata id="CorelCorpID_0Corel-Layer"/>
  <path class="fil0" d="M802 521c22,17 51,42 76,54l-49 77c-23,-20 -47,-35 -77,-48l50 -83zm64 -419c-28,-15 -62,-29 -100,-29 -37,0 -60,11 -78,33 61,47 117,82 138,165 11,44 11,92 11,151l-45 12c0,-97 -25,-165 -76,-207 -23,-19 -49,-36 -65,-59 -8,-9 -11,-21 -11,-35 0,-59 38,-101 81,-122 16,-7 33,-11 51,-11 19,0 39,4 54,10 8,3 18,6 26,9 8,4 14,8 20,12l-6 71z"/>
 </g>
</svg>
