<?xml version="1.0" encoding="UTF-8"?>
<!DOCTYPE svg PUBLIC "-//W3C//DTD SVG 1.0//EN" "http://www.w3.org/TR/2001/REC-SVG-20010904/DTD/svg10.dtd">
<!-- Creator: CorelDRAW -->
<svg xmlns="http://www.w3.org/2000/svg" xml:space="preserve" width="1300px" height="1300px" version="1.0" style="shape-rendering:geometricPrecision; text-rendering:geometricPrecision; image-rendering:optimizeQuality; fill-rule:evenodd; clip-rule:evenodd"
viewBox="0 0 1300 1056"
 xmlns:xlink="http://www.w3.org/1999/xlink">
 <defs>
  <style type="text/css">
   <![CDATA[
    .fil0 {fill:#CC6633;fill-opacity:0.501961}
   ]]>
  </style>
 </defs>
 <g id="_100:master">
  <metadata id="CorelCorpID_0Corel-Layer"/>
  <path class="fil0" d="M731 512c26,26 100,86 128,70 51,-30 52,-70 51,-131l0 -126 65 0 0 105c0,74 8,139 101,139l0 81c-55,0 -105,-11 -134,-53 -18,34 -68,83 -121,62 -34,-13 -89,-49 -121,-75 -14,22 -31,40 -54,53 -72,41 -166,18 -225,-53 -48,57 -137,66 -210,66l0 0 0 0 0 0c-21,0 -41,-20 -41,-41 1,-21 21,-40 41,-40l0 0c175,0 192,-69 223,-221l63 12c-14,68 -18,111 -35,153 45,77 158,91 196,1 19,-43 33,-113 44,-166l63 12c-11,45 -18,101 -34,152z"/>
 </g>
</svg>
