<?xml version="1.0" encoding="UTF-8"?>
<!DOCTYPE svg PUBLIC "-//W3C//DTD SVG 1.0//EN" "http://www.w3.org/TR/2001/REC-SVG-20010904/DTD/svg10.dtd">
<!-- Creator: CorelDRAW -->
<svg xmlns="http://www.w3.org/2000/svg" xml:space="preserve" width="1300px" height="1300px" version="1.0" style="shape-rendering:geometricPrecision; text-rendering:geometricPrecision; image-rendering:optimizeQuality; fill-rule:evenodd; clip-rule:evenodd"
viewBox="0 0 1300 1056"
 xmlns:xlink="http://www.w3.org/1999/xlink">
 <defs>
  <style type="text/css">
   <![CDATA[
    .fil0 {fill:black}
   ]]>
  </style>
 </defs>
 <g id="_100:master">
  <metadata id="CorelCorpID_0Corel-Layer"/>
  <path class="fil0" d="M835 405l0 29c-17,0 -30,5 -38,16 -9,10 -16,24 -20,40 -4,16 -6,34 -7,54 0,19 0,37 0,55 0,20 -1,39 -1,58 -1,18 -4,34 -9,48 -6,14 -15,25 -27,34 -13,8 -32,12 -56,12l-25 0 0 -57 10 0c13,0 24,-2 31,-6 8,-4 13,-10 17,-18 3,-9 5,-20 5,-33 1,-13 1,-29 1,-48 0,-21 1,-42 2,-62 1,-20 3,-38 7,-54 4,-17 10,-31 18,-43 7,-12 18,-20 31,-25 -13,-5 -24,-14 -31,-25 -8,-12 -14,-26 -18,-43 -4,-16 -6,-34 -7,-54 -1,-20 -2,-41 -2,-62 0,-19 0,-35 -1,-48 0,-13 -2,-24 -5,-33 -4,-8 -9,-14 -17,-18 -7,-4 -18,-6 -31,-6l-10 0 0 -57 25 0c24,0 43,4 56,12 12,9 21,20 27,34 5,14 8,30 9,48 0,19 1,38 1,58 0,18 0,37 0,56 1,19 3,37 7,53 4,17 11,30 20,41 8,10 21,16 38,16l0 28z"/>
 </g>
</svg>
