<?xml version="1.0" encoding="UTF-8"?>
<!DOCTYPE svg PUBLIC "-//W3C//DTD SVG 1.0//EN" "http://www.w3.org/TR/2001/REC-SVG-20010904/DTD/svg10.dtd">
<!-- Creator: CorelDRAW -->
<svg xmlns="http://www.w3.org/2000/svg" xml:space="preserve" width="1300px" height="1300px" version="1.0" style="shape-rendering:geometricPrecision; text-rendering:geometricPrecision; image-rendering:optimizeQuality; fill-rule:evenodd; clip-rule:evenodd"
viewBox="0 0 1300 1056"
 xmlns:xlink="http://www.w3.org/1999/xlink">
 <defs>
  <style type="text/css">
   <![CDATA[
    .fil0 {fill:black}
   ]]>
  </style>
 </defs>
 <g id="_100:master">
  <metadata id="CorelCorpID_0Corel-Layer"/>
  <path class="fil0" d="M223 650l0 0c-19,-3 -37,-21 -36,-41 0,-19 17,-37 36,-40l0 0c179,0 192,-73 223,-221l63 12c-11,51 -18,99 -35,151 43,78 158,93 197,3 20,-48 31,-111 43,-166l63 12 -34 156c21,21 93,81 124,66 61,-30 45,-70 43,-131l-1 -131 64 0c0,39 -1,153 9,186 13,44 48,63 94,63l0 81c-55,0 -105,-11 -134,-53 -18,34 -68,83 -121,62 -36,-14 -78,-45 -110,-71 -63,95 -201,90 -277,-5 -49,57 -133,67 -207,67l0 0 -4 0z"/>
 </g>
</svg>
