<?xml version="1.0" encoding="UTF-8"?>
<!DOCTYPE svg PUBLIC "-//W3C//DTD SVG 1.0//EN" "http://www.w3.org/TR/2001/REC-SVG-20010904/DTD/svg10.dtd">
<!-- Creator: CorelDRAW -->
<svg xmlns="http://www.w3.org/2000/svg" xml:space="preserve" width="1300px" height="1300px" version="1.0" style="shape-rendering:geometricPrecision; text-rendering:geometricPrecision; image-rendering:optimizeQuality; fill-rule:evenodd; clip-rule:evenodd"
viewBox="0 0 1300 1056"
 xmlns:xlink="http://www.w3.org/1999/xlink">
 <defs>
  <style type="text/css">
   <![CDATA[
    .fil0 {fill:black}
   ]]>
  </style>
 </defs>
 <g id="_100:master">
  <metadata id="CorelCorpID_0Corel-Layer"/>
  <path class="fil0" d="M772 411l-26 110c36,35 99,93 143,51 14,-14 28,-24 28,-47 0,-79 -7,-163 -22,-243l71 -13c15,66 51,276 -7,334 -97,96 -137,78 -245,-10 -46,64 -155,99 -224,27 4,75 10,140 -42,198 -32,36 -167,73 -227,73 -183,0 -251,-130 -207,-296 20,-78 44,-140 72,-209l48 18c-66,163 -160,406 103,406 53,0 129,-28 186,-55 25,-87 -13,-290 -33,-381l63 -12c15,79 20,217 132,217 100,0 115,-138 133,-229l63 13 -9 48z"/>
 </g>
</svg>
