<?xml version="1.0" encoding="UTF-8"?>
<!DOCTYPE svg PUBLIC "-//W3C//DTD SVG 1.0//EN" "http://www.w3.org/TR/2001/REC-SVG-20010904/DTD/svg10.dtd">
<!-- Creator: CorelDRAW -->
<svg xmlns="http://www.w3.org/2000/svg" xml:space="preserve" width="1300px" height="1300px" version="1.0" style="shape-rendering:geometricPrecision; text-rendering:geometricPrecision; image-rendering:optimizeQuality; fill-rule:evenodd; clip-rule:evenodd"
viewBox="0 0 1300 1056"
 xmlns:xlink="http://www.w3.org/1999/xlink">
 <defs>
  <style type="text/css">
   <![CDATA[
    .fil0 {fill:black}
   ]]>
  </style>
 </defs>
 <g id="_100:master">
  <metadata id="CorelCorpID_0Corel-Layer"/>
  <path class="fil0" d="M272 650l0 0c-20,0 -40,-20 -40,-41 0,-21 20,-40 41,-40l0 0c175,0 192,-69 222,-221l63 12c-10,51 -18,104 -35,151 44,79 158,94 197,3 19,-43 33,-113 43,-166l64 12c-11,47 -19,106 -36,159l0 0c52,52 115,102 164,28 21,-33 -8,-224 -16,-267l72 -13c15,69 50,276 -7,333 -95,94 -135,82 -245,-10l2 -5c-14,21 -31,40 -54,52 -71,41 -165,18 -224,-53 -48,57 -137,66 -210,66l0 0 -1 0z"/>
 </g>
</svg>
