<?xml version="1.0" encoding="UTF-8"?>
<!DOCTYPE svg PUBLIC "-//W3C//DTD SVG 1.0//EN" "http://www.w3.org/TR/2001/REC-SVG-20010904/DTD/svg10.dtd">
<!-- Creator: CorelDRAW -->
<svg xmlns="http://www.w3.org/2000/svg" xml:space="preserve" width="1300px" height="1300px" version="1.0" style="shape-rendering:geometricPrecision; text-rendering:geometricPrecision; image-rendering:optimizeQuality; fill-rule:evenodd; clip-rule:evenodd"
viewBox="0 0 1300 1056"
 xmlns:xlink="http://www.w3.org/1999/xlink">
 <defs>
  <style type="text/css">
   <![CDATA[
    .fil0 {fill:black}
   ]]>
  </style>
 </defs>
 <g id="_100:master">
  <metadata id="CorelCorpID_0Corel-Layer"/>
  <path class="fil0" d="M736 493c7,7 15,14 22,21 7,7 15,14 22,21l-63 63c-8,-8 -17,-16 -25,-23 -7,-7 -15,-15 -20,-24 -6,-8 -11,-17 -15,-27 -3,-9 -5,-21 -5,-34 1,-24 9,-49 24,-73 14,-23 33,-46 55,-68l39 39c-6,6 -11,11 -16,17 -6,6 -11,12 -15,18 -5,6 -9,13 -12,19 -3,6 -4,12 -5,19 -1,12 4,23 14,32z"/>
 </g>
</svg>
